<svg xmlns="http://www.w3.org/2000/svg" xmlns:xlink="http://www.w3.org/1999/xlink" xmlns:inkscape="http://www.inkscape.org/namespaces/inkscape" version="1.1" width="595.32" height="841.92" viewBox="0 0 595.32 841.92">
<defs>
<clipPath id="clip_0">
<path transform="matrix(1,0,0,-1,0,841.92)" d="M.000008871 0H595.32V841.92H.000008871Z" clip-rule="evenodd"/>
</clipPath>
<clipPath id="clip_1">
<path transform="matrix(1,0,0,-1,0,841.92)" d="M.000008871 0H595.32V841.92H.000008871Z" clip-rule="evenodd"/>
</clipPath>
<clipPath id="clip_2">
<path transform="matrix(1,0,0,-1,0,841.92)" d="M.000008871 0H595.32V841.92H.000008871Z" clip-rule="evenodd"/>
</clipPath>
<clipPath id="clip_3">
<path transform="matrix(1,0,0,-1,0,841.92)" d="M.000008871 0H595.32V841.92H.000008871Z" clip-rule="evenodd"/>
</clipPath>
<clipPath id="clip_4">
<path transform="matrix(1,0,0,-1,0,841.92)" d="M.000008871 0H595.32V841.92H.000008871Z" clip-rule="evenodd"/>
</clipPath>
<clipPath id="clip_5">
<path transform="matrix(1,0,0,-1,0,841.92)" d="M.000008871 0H595.32V841.92H.000008871Z" clip-rule="evenodd"/>
</clipPath>
<clipPath id="clip_6">
<path transform="matrix(1,0,0,-1,0,841.92)" d="M.000008871 0H595.32V841.92H.000008871Z" clip-rule="evenodd"/>
</clipPath>
<clipPath id="clip_7">
<path transform="matrix(1,0,0,-1,0,841.92)" d="M.000008871 0H595.32V841.92H.000008871Z" clip-rule="evenodd"/>
</clipPath>
<clipPath id="clip_8">
<path transform="matrix(1,0,0,-1,0,841.92)" d="M36 681.1H297.41V696.45999H36Z" clip-rule="evenodd"/>
</clipPath>
<clipPath id="clip_9">
<path transform="matrix(1,0,0,-1,0,841.92)" d="M36 681.1H297.41V696.45999H36Z" clip-rule="evenodd"/>
</clipPath>
<clipPath id="clip_10">
<path transform="matrix(1,0,0,-1,0,841.92)" d="M36 681.1H297.41V696.45999H36Z" clip-rule="evenodd"/>
</clipPath>
<clipPath id="clip_11">
<path transform="matrix(1,0,0,-1,0,841.92)" d="M36 681.1H297.41V696.45999H36Z" clip-rule="evenodd"/>
</clipPath>
<clipPath id="clip_12">
<path transform="matrix(1,0,0,-1,0,841.92)" d="M36 681.1H297.41V696.45999H36Z" clip-rule="evenodd"/>
</clipPath>
<clipPath id="clip_13">
<path transform="matrix(1,0,0,-1,0,841.92)" d="M36 681.1H297.41V696.45999H36Z" clip-rule="evenodd"/>
</clipPath>
<clipPath id="clip_14">
<path transform="matrix(1,0,0,-1,0,841.92)" d="M297.41 681.1H558.94V696.45999H297.41Z" clip-rule="evenodd"/>
</clipPath>
<clipPath id="clip_15">
<path transform="matrix(1,0,0,-1,0,841.92)" d="M297.41 681.1H558.94V696.45999H297.41Z" clip-rule="evenodd"/>
</clipPath>
<clipPath id="clip_16">
<path transform="matrix(1,0,0,-1,0,841.92)" d="M297.41 681.1H558.94V696.45999H297.41Z" clip-rule="evenodd"/>
</clipPath>
<clipPath id="clip_17">
<path transform="matrix(1,0,0,-1,0,841.92)" d="M297.41 681.1H558.94V696.45999H297.41Z" clip-rule="evenodd"/>
</clipPath>
<clipPath id="clip_18">
<path transform="matrix(1,0,0,-1,0,841.92)" d="M297.41 681.1H558.94V696.45999H297.41Z" clip-rule="evenodd"/>
</clipPath>
<clipPath id="clip_19">
<path transform="matrix(1,0,0,-1,0,841.92)" d="M297.41 681.1H558.94V696.45999H297.41Z" clip-rule="evenodd"/>
</clipPath>
<clipPath id="clip_20">
<path transform="matrix(1,0,0,-1,0,841.92)" d="M297.41 681.1H558.94V696.45999H297.41Z" clip-rule="evenodd"/>
</clipPath>
<clipPath id="clip_21">
<path transform="matrix(1,0,0,-1,0,841.92)" d="M297.41 681.1H558.94V696.45999H297.41Z" clip-rule="evenodd"/>
</clipPath>
<clipPath id="clip_22">
<path transform="matrix(1,0,0,-1,0,841.92)" d="M297.41 681.1H558.94V696.45999H297.41Z" clip-rule="evenodd"/>
</clipPath>
<clipPath id="clip_23">
<path transform="matrix(1,0,0,-1,0,841.92)" d="M36 665.86H297.41V681.1H36Z" clip-rule="evenodd"/>
</clipPath>
<clipPath id="clip_24">
<path transform="matrix(1,0,0,-1,0,841.92)" d="M36 665.86H297.41V681.1H36Z" clip-rule="evenodd"/>
</clipPath>
<clipPath id="clip_25">
<path transform="matrix(1,0,0,-1,0,841.92)" d="M36 665.86H297.41V681.1H36Z" clip-rule="evenodd"/>
</clipPath>
<clipPath id="clip_26">
<path transform="matrix(1,0,0,-1,0,841.92)" d="M36 665.86H297.41V681.1H36Z" clip-rule="evenodd"/>
</clipPath>
<clipPath id="clip_27">
<path transform="matrix(1,0,0,-1,0,841.92)" d="M36 665.86H297.41V681.1H36Z" clip-rule="evenodd"/>
</clipPath>
<clipPath id="clip_28">
<path transform="matrix(1,0,0,-1,0,841.92)" d="M36 665.86H297.41V681.1H36Z" clip-rule="evenodd"/>
</clipPath>
<clipPath id="clip_29">
<path transform="matrix(1,0,0,-1,0,841.92)" d="M297.41 665.86H558.94V681.1H297.41Z" clip-rule="evenodd"/>
</clipPath>
<clipPath id="clip_30">
<path transform="matrix(1,0,0,-1,0,841.92)" d="M297.41 665.86H558.94V681.1H297.41Z" clip-rule="evenodd"/>
</clipPath>
<clipPath id="clip_31">
<path transform="matrix(1,0,0,-1,0,841.92)" d="M297.41 665.86H558.94V681.1H297.41Z" clip-rule="evenodd"/>
</clipPath>
<clipPath id="clip_32">
<path transform="matrix(1,0,0,-1,0,841.92)" d="M297.41 665.86H558.94V681.1H297.41Z" clip-rule="evenodd"/>
</clipPath>
<clipPath id="clip_33">
<path transform="matrix(1,0,0,-1,0,841.92)" d="M297.41 665.86H558.94V681.1H297.41Z" clip-rule="evenodd"/>
</clipPath>
<clipPath id="clip_34">
<path transform="matrix(1,0,0,-1,0,841.92)" d="M297.41 665.86H558.94V681.1H297.41Z" clip-rule="evenodd"/>
</clipPath>
<clipPath id="clip_35">
<path transform="matrix(1,0,0,-1,0,841.92)" d="M297.41 665.86H558.94V681.1H297.41Z" clip-rule="evenodd"/>
</clipPath>
<clipPath id="clip_36">
<path transform="matrix(1,0,0,-1,0,841.92)" d="M297.41 665.86H558.94V681.1H297.41Z" clip-rule="evenodd"/>
</clipPath>
<clipPath id="clip_37">
<path transform="matrix(1,0,0,-1,0,841.92)" d="M.000008871 0H595.32V841.92H.000008871Z" clip-rule="evenodd"/>
</clipPath>
<clipPath id="clip_38">
<path transform="matrix(1,0,0,-1,0,841.92)" d="M.000008871 0H595.32V841.92H.000008871Z" clip-rule="evenodd"/>
</clipPath>
<clipPath id="clip_39">
<path transform="matrix(1,0,0,-1,0,841.92)" d="M.000008871 0H595.32V841.92H.000008871Z" clip-rule="evenodd"/>
</clipPath>
<clipPath id="clip_40">
<path transform="matrix(1,0,0,-1,0,841.92)" d="M.000008871 0H595.32V841.92H.000008871Z" clip-rule="evenodd"/>
</clipPath>
<clipPath id="clip_41">
<path transform="matrix(1,0,0,-1,0,841.92)" d="M.000008871 0H595.32V841.92H.000008871Z" clip-rule="evenodd"/>
</clipPath>
<clipPath id="clip_42">
<path transform="matrix(1,0,0,-1,0,841.92)" d="M.000008871 0H595.32V841.92H.000008871Z" clip-rule="evenodd"/>
</clipPath>
<clipPath id="clip_43">
<path transform="matrix(1,0,0,-1,0,841.92)" d="M.000008871 0H595.32V841.92H.000008871Z" clip-rule="evenodd"/>
</clipPath>
<clipPath id="clip_44">
<path transform="matrix(1,0,0,-1,0,841.92)" d="M.000008871 0H595.32V841.92H.000008871Z" clip-rule="evenodd"/>
</clipPath>
<clipPath id="clip_45">
<path transform="matrix(1,0,0,-1,0,841.92)" d="M.000008871 0H595.32V841.92H.000008871Z" clip-rule="evenodd"/>
</clipPath>
<clipPath id="clip_46">
<path transform="matrix(1,0,0,-1,0,841.92)" d="M.000008871 0H595.32V841.92H.000008871Z" clip-rule="evenodd"/>
</clipPath>
<clipPath id="clip_47">
<path transform="matrix(1,0,0,-1,0,841.92)" d="M.000008871 0H595.32V841.92H.000008871Z" clip-rule="evenodd"/>
</clipPath>
<clipPath id="clip_48">
<path transform="matrix(1,0,0,-1,0,841.92)" d="M.000008871 0H595.32V841.92H.000008871Z" clip-rule="evenodd"/>
</clipPath>
<clipPath id="clip_49">
<path transform="matrix(1,0,0,-1,0,841.92)" d="M.000008871 0H595.32V841.92H.000008871Z" clip-rule="evenodd"/>
</clipPath>
<clipPath id="clip_50">
<path transform="matrix(1,0,0,-1,0,841.92)" d="M.000008871 0H595.32V841.92H.000008871Z" clip-rule="evenodd"/>
</clipPath>
<clipPath id="clip_51">
<path transform="matrix(1,0,0,-1,0,841.92)" d="M.000008871 0H595.32V841.92H.000008871Z" clip-rule="evenodd"/>
</clipPath>
<clipPath id="clip_52">
<path transform="matrix(1,0,0,-1,0,841.92)" d="M.000008871 0H595.32V841.92H.000008871Z" clip-rule="evenodd"/>
</clipPath>
<clipPath id="clip_53">
<path transform="matrix(1,0,0,-1,0,841.92)" d="M.000008871 0H595.32V841.92H.000008871Z" clip-rule="evenodd"/>
</clipPath>
<clipPath id="clip_54">
<path transform="matrix(1,0,0,-1,0,841.92)" d="M.000008871 0H595.32V841.92H.000008871Z" clip-rule="evenodd"/>
</clipPath>
<clipPath id="clip_55">
<path transform="matrix(1,0,0,-1,0,841.92)" d="M.000008871 0H595.32V841.92H.000008871Z" clip-rule="evenodd"/>
</clipPath>
<clipPath id="clip_56">
<path transform="matrix(1,0,0,-1,0,841.92)" d="M.000008871 0H595.32V841.92H.000008871Z" clip-rule="evenodd"/>
</clipPath>
<clipPath id="clip_57">
<path transform="matrix(1,0,0,-1,0,841.92)" d="M.000008871 0H595.32V841.92H.000008871Z" clip-rule="evenodd"/>
</clipPath>
<clipPath id="clip_58">
<path transform="matrix(1,0,0,-1,0,841.92)" d="M.000008871 0H595.32V841.92H.000008871Z" clip-rule="evenodd"/>
</clipPath>
<clipPath id="clip_59">
<path transform="matrix(1,0,0,-1,0,841.92)" d="M.000008871 0H595.32V841.92H.000008871Z" clip-rule="evenodd"/>
</clipPath>
<clipPath id="clip_60">
<path transform="matrix(1,0,0,-1,0,841.92)" d="M.000008871 0H595.32V841.92H.000008871Z" clip-rule="evenodd"/>
</clipPath>
<clipPath id="clip_61">
<path transform="matrix(1,0,0,-1,0,841.92)" d="M.000008871 0H595.32V841.92H.000008871Z" clip-rule="evenodd"/>
</clipPath>
<clipPath id="clip_62">
<path transform="matrix(1,0,0,-1,0,841.92)" d="M.000008871 0H595.32V841.92H.000008871Z" clip-rule="evenodd"/>
</clipPath>
<clipPath id="clip_63">
<path transform="matrix(1,0,0,-1,0,841.92)" d="M.000008871 0H595.32V841.92H.000008871Z" clip-rule="evenodd"/>
</clipPath>
<clipPath id="clip_64">
<path transform="matrix(1,0,0,-1,0,841.92)" d="M.000008871 0H595.32V841.92H.000008871Z" clip-rule="evenodd"/>
</clipPath>
<clipPath id="clip_65">
<path transform="matrix(1,0,0,-1,0,841.92)" d="M.000008871 0H595.32V841.92H.000008871Z" clip-rule="evenodd"/>
</clipPath>
<clipPath id="clip_66">
<path transform="matrix(1,0,0,-1,0,841.92)" d="M.000008871 0H595.32V841.92H.000008871Z" clip-rule="evenodd"/>
</clipPath>
<clipPath id="clip_67">
<path transform="matrix(1,0,0,-1,0,841.92)" d="M.000008871 0H595.32V841.92H.000008871Z" clip-rule="evenodd"/>
</clipPath>
<clipPath id="clip_68">
<path transform="matrix(1,0,0,-1,0,841.92)" d="M.000008871 0H595.32V841.92H.000008871Z" clip-rule="evenodd"/>
</clipPath>
<clipPath id="clip_69">
<path transform="matrix(1,0,0,-1,0,841.92)" d="M.000008871 0H595.32V841.92H.000008871Z" clip-rule="evenodd"/>
</clipPath>
<clipPath id="clip_70">
<path transform="matrix(1,0,0,-1,0,841.92)" d="M.000008871 0H595.32V841.92H.000008871Z" clip-rule="evenodd"/>
</clipPath>
<clipPath id="clip_71">
<path transform="matrix(1,0,0,-1,0,841.92)" d="M.000008871 0H595.32V841.92H.000008871Z" clip-rule="evenodd"/>
</clipPath>
<clipPath id="clip_72">
<path transform="matrix(1,0,0,-1,0,841.92)" d="M.000008871 0H595.32V841.92H.000008871Z" clip-rule="evenodd"/>
</clipPath>
<clipPath id="clip_73">
<path transform="matrix(1,0,0,-1,0,841.92)" d="M.000008871 0H595.32V841.92H.000008871Z" clip-rule="evenodd"/>
</clipPath>
<clipPath id="clip_74">
<path transform="matrix(1,0,0,-1,0,841.92)" d="M.000008871 0H595.32V841.92H.000008871Z" clip-rule="evenodd"/>
</clipPath>
<clipPath id="clip_75">
<path transform="matrix(1,0,0,-1,0,841.92)" d="M.000008871 0H595.32V841.92H.000008871Z" clip-rule="evenodd"/>
</clipPath>
<clipPath id="clip_76">
<path transform="matrix(1,0,0,-1,0,841.92)" d="M.000008871 0H595.32V841.92H.000008871Z" clip-rule="evenodd"/>
</clipPath>
<clipPath id="clip_77">
<path transform="matrix(1,0,0,-1,0,841.92)" d="M.000008871 0H595.32V841.92H.000008871Z" clip-rule="evenodd"/>
</clipPath>
<clipPath id="clip_78">
<path transform="matrix(1,0,0,-1,0,841.92)" d="M.000008871 0H595.32V841.92H.000008871Z" clip-rule="evenodd"/>
</clipPath>
<clipPath id="clip_79">
<path transform="matrix(1,0,0,-1,0,841.92)" d="M.000008871 0H595.32V841.92H.000008871Z" clip-rule="evenodd"/>
</clipPath>
<clipPath id="clip_80">
<path transform="matrix(1,0,0,-1,0,841.92)" d="M.000008871 0H595.32V841.92H.000008871Z" clip-rule="evenodd"/>
</clipPath>
<clipPath id="clip_81">
<path transform="matrix(1,0,0,-1,0,841.92)" d="M.000008871 0H595.32V841.92H.000008871Z" clip-rule="evenodd"/>
</clipPath>
<clipPath id="clip_82">
<path transform="matrix(1,0,0,-1,0,841.92)" d="M.000008871 0H595.32V841.92H.000008871Z" clip-rule="evenodd"/>
</clipPath>
<clipPath id="clip_83">
<path transform="matrix(1,0,0,-1,0,841.92)" d="M.000008871 0H595.32V841.92H.000008871Z" clip-rule="evenodd"/>
</clipPath>
<clipPath id="clip_84">
<path transform="matrix(1,0,0,-1,0,841.92)" d="M.000008871 0H595.32V841.92H.000008871Z" clip-rule="evenodd"/>
</clipPath>
<clipPath id="clip_85">
<path transform="matrix(1,0,0,-1,0,841.92)" d="M.000008871 0H595.32V841.92H.000008871Z" clip-rule="evenodd"/>
</clipPath>
<clipPath id="clip_86">
<path transform="matrix(1,0,0,-1,0,841.92)" d="M.000008871 0H595.32V841.92H.000008871Z" clip-rule="evenodd"/>
</clipPath>
<clipPath id="clip_87">
<path transform="matrix(1,0,0,-1,0,841.92)" d="M.000008871 0H595.32V841.92H.000008871Z" clip-rule="evenodd"/>
</clipPath>
<clipPath id="clip_88">
<path transform="matrix(1,0,0,-1,0,841.92)" d="M.000008871 0H595.32V841.92H.000008871Z" clip-rule="evenodd"/>
</clipPath>
<clipPath id="clip_89">
<path transform="matrix(1,0,0,-1,0,841.92)" d="M.000008871 0H595.32V841.92H.000008871Z" clip-rule="evenodd"/>
</clipPath>
<clipPath id="clip_90">
<path transform="matrix(1,0,0,-1,0,841.92)" d="M.000008871 0H595.32V841.92H.000008871Z" clip-rule="evenodd"/>
</clipPath>
<clipPath id="clip_91">
<path transform="matrix(1,0,0,-1,0,841.92)" d="M.000008871 0H595.32V841.92H.000008871Z" clip-rule="evenodd"/>
</clipPath>
<clipPath id="clip_92">
<path transform="matrix(1,0,0,-1,0,841.92)" d="M.000008871 0H595.32V841.92H.000008871Z" clip-rule="evenodd"/>
</clipPath>
<clipPath id="clip_93">
<path transform="matrix(1,0,0,-1,0,841.92)" d="M.000008871 0H595.32V841.92H.000008871Z" clip-rule="evenodd"/>
</clipPath>
<clipPath id="clip_94">
<path transform="matrix(1,0,0,-1,0,841.92)" d="M.000008871 0H595.32V841.92H.000008871Z" clip-rule="evenodd"/>
</clipPath>
<clipPath id="clip_95">
<path transform="matrix(1,0,0,-1,0,841.92)" d="M.000008871 0H595.32V841.92H.000008871Z" clip-rule="evenodd"/>
</clipPath>
<clipPath id="clip_96">
<path transform="matrix(1,0,0,-1,0,841.92)" d="M.000008871 0H595.32V841.92H.000008871Z" clip-rule="evenodd"/>
</clipPath>
<clipPath id="clip_97">
<path transform="matrix(1,0,0,-1,0,841.92)" d="M.000008871 0H595.32V841.92H.000008871Z" clip-rule="evenodd"/>
</clipPath>
<clipPath id="clip_98">
<path transform="matrix(1,0,0,-1,0,841.92)" d="M.000008871 0H595.32V841.92H.000008871Z" clip-rule="evenodd"/>
</clipPath>
<clipPath id="clip_99">
<path transform="matrix(1,0,0,-1,0,841.92)" d="M.000008871 0H595.32V841.92H.000008871Z" clip-rule="evenodd"/>
</clipPath>
<clipPath id="clip_100">
<path transform="matrix(1,0,0,-1,0,841.92)" d="M.000008871 0H595.32V841.92H.000008871Z" clip-rule="evenodd"/>
</clipPath>
<clipPath id="clip_101">
<path transform="matrix(1,0,0,-1,0,841.92)" d="M.000008871 0H595.32V841.92H.000008871Z" clip-rule="evenodd"/>
</clipPath>
<clipPath id="clip_102">
<path transform="matrix(1,0,0,-1,0,841.92)" d="M.000008871 0H595.32V841.92H.000008871Z" clip-rule="evenodd"/>
</clipPath>
<clipPath id="clip_103">
<path transform="matrix(1,0,0,-1,0,841.92)" d="M.000008871 0H595.32V841.92H.000008871Z" clip-rule="evenodd"/>
</clipPath>
<clipPath id="clip_104">
<path transform="matrix(1,0,0,-1,0,841.92)" d="M.000008871 0H595.32V841.92H.000008871Z" clip-rule="evenodd"/>
</clipPath>
<clipPath id="clip_105">
<path transform="matrix(1,0,0,-1,0,841.92)" d="M.000008871 0H595.32V841.92H.000008871Z" clip-rule="evenodd"/>
</clipPath>
<clipPath id="clip_106">
<path transform="matrix(1,0,0,-1,0,841.92)" d="M.000008871 0H595.32V841.92H.000008871Z" clip-rule="evenodd"/>
</clipPath>
<clipPath id="clip_107">
<path transform="matrix(1,0,0,-1,0,841.92)" d="M.000008871 0H595.32V841.92H.000008871Z" clip-rule="evenodd"/>
</clipPath>
<clipPath id="clip_108">
<path transform="matrix(1,0,0,-1,0,841.92)" d="M.000008871 0H595.32V841.92H.000008871Z" clip-rule="evenodd"/>
</clipPath>
<clipPath id="clip_109">
<path transform="matrix(1,0,0,-1,0,841.92)" d="M.000008871 0H595.32V841.92H.000008871Z" clip-rule="evenodd"/>
</clipPath>
<clipPath id="clip_110">
<path transform="matrix(1,0,0,-1,0,841.92)" d="M.000008871 0H595.32V841.92H.000008871Z" clip-rule="evenodd"/>
</clipPath>
<clipPath id="clip_111">
<path transform="matrix(1,0,0,-1,0,841.92)" d="M.000008871 0H595.32V841.92H.000008871Z" clip-rule="evenodd"/>
</clipPath>
<clipPath id="clip_112">
<path transform="matrix(1,0,0,-1,0,841.92)" d="M.000008871 0H595.32V841.92H.000008871Z" clip-rule="evenodd"/>
</clipPath>
<clipPath id="clip_113">
<path transform="matrix(1,0,0,-1,0,841.92)" d="M.000008871 0H595.32V841.92H.000008871Z" clip-rule="evenodd"/>
</clipPath>
<clipPath id="clip_114">
<path transform="matrix(1,0,0,-1,0,841.92)" d="M.000008871 0H595.32V841.92H.000008871Z" clip-rule="evenodd"/>
</clipPath>
<clipPath id="clip_115">
<path transform="matrix(1,0,0,-1,0,841.92)" d="M.000008871 0H595.32V841.92H.000008871Z" clip-rule="evenodd"/>
</clipPath>
<clipPath id="clip_116">
<path transform="matrix(1,0,0,-1,0,841.92)" d="M.000008871 0H595.32V841.92H.000008871Z" clip-rule="evenodd"/>
</clipPath>
<clipPath id="clip_117">
<path transform="matrix(1,0,0,-1,0,841.92)" d="M.000008871 0H595.32V841.92H.000008871Z" clip-rule="evenodd"/>
</clipPath>
<clipPath id="clip_118">
<path transform="matrix(1,0,0,-1,0,841.92)" d="M.000008871 0H595.32V841.92H.000008871Z" clip-rule="evenodd"/>
</clipPath>
<clipPath id="clip_119">
<path transform="matrix(1,0,0,-1,0,841.92)" d="M.000008871 0H595.32V841.92H.000008871Z" clip-rule="evenodd"/>
</clipPath>
<clipPath id="clip_120">
<path transform="matrix(1,0,0,-1,0,841.92)" d="M.000008871 0H595.32V841.92H.000008871Z" clip-rule="evenodd"/>
</clipPath>
<clipPath id="clip_121">
<path transform="matrix(1,0,0,-1,0,841.92)" d="M.000008871 0H595.32V841.92H.000008871Z" clip-rule="evenodd"/>
</clipPath>
<clipPath id="clip_122">
<path transform="matrix(1,0,0,-1,0,841.92)" d="M.000008871 0H595.32V841.92H.000008871Z" clip-rule="evenodd"/>
</clipPath>
<clipPath id="clip_123">
<path transform="matrix(1,0,0,-1,0,841.92)" d="M.000008871 0H595.32V841.92H.000008871Z" clip-rule="evenodd"/>
</clipPath>
<clipPath id="clip_124">
<path transform="matrix(1,0,0,-1,0,841.92)" d="M.000008871 0H595.32V841.92H.000008871Z" clip-rule="evenodd"/>
</clipPath>
<clipPath id="clip_125">
<path transform="matrix(1,0,0,-1,0,841.92)" d="M.000008871 0H595.32V841.92H.000008871Z" clip-rule="evenodd"/>
</clipPath>
<clipPath id="clip_126">
<path transform="matrix(1,0,0,-1,0,841.92)" d="M.000008871 0H595.32V841.92H.000008871Z" clip-rule="evenodd"/>
</clipPath>
<clipPath id="clip_127">
<path transform="matrix(1,0,0,-1,0,841.92)" d="M.000008871 0H595.32V841.92H.000008871Z" clip-rule="evenodd"/>
</clipPath>
<clipPath id="clip_128">
<path transform="matrix(1,0,0,-1,0,841.92)" d="M.000008871 0H595.32V841.92H.000008871Z" clip-rule="evenodd"/>
</clipPath>
<clipPath id="clip_129">
<path transform="matrix(1,0,0,-1,0,841.92)" d="M.000008871 0H595.32V841.92H.000008871Z" clip-rule="evenodd"/>
</clipPath>
<clipPath id="clip_130">
<path transform="matrix(1,0,0,-1,0,841.92)" d="M.000008871 0H595.32V841.92H.000008871Z" clip-rule="evenodd"/>
</clipPath>
<clipPath id="clip_131">
<path transform="matrix(1,0,0,-1,0,841.92)" d="M.000008871 0H595.32V841.92H.000008871Z" clip-rule="evenodd"/>
</clipPath>
<clipPath id="clip_132">
<path transform="matrix(1,0,0,-1,0,841.92)" d="M.000008871 0H595.32V841.92H.000008871Z" clip-rule="evenodd"/>
</clipPath>
<clipPath id="clip_133">
<path transform="matrix(1,0,0,-1,0,841.92)" d="M.000008871 0H595.32V841.92H.000008871Z" clip-rule="evenodd"/>
</clipPath>
<clipPath id="clip_134">
<path transform="matrix(1,0,0,-1,0,841.92)" d="M.000008871 0H595.32V841.92H.000008871Z" clip-rule="evenodd"/>
</clipPath>
<clipPath id="clip_135">
<path transform="matrix(1,0,0,-1,0,841.92)" d="M.000008871 0H595.32V841.92H.000008871Z" clip-rule="evenodd"/>
</clipPath>
<clipPath id="clip_136">
<path transform="matrix(1,0,0,-1,0,841.92)" d="M.000008871 0H595.32V841.92H.000008871Z" clip-rule="evenodd"/>
</clipPath>
<clipPath id="clip_137">
<path transform="matrix(1,0,0,-1,0,841.92)" d="M.000008871 0H595.32V841.92H.000008871Z" clip-rule="evenodd"/>
</clipPath>
<clipPath id="clip_138">
<path transform="matrix(1,0,0,-1,0,841.92)" d="M.000008871 0H595.32V841.92H.000008871Z" clip-rule="evenodd"/>
</clipPath>
<clipPath id="clip_139">
<path transform="matrix(1,0,0,-1,0,841.92)" d="M.000008871 0H595.32V841.92H.000008871Z" clip-rule="evenodd"/>
</clipPath>
<clipPath id="clip_140">
<path transform="matrix(1,0,0,-1,0,841.92)" d="M.000008871 0H595.32V841.92H.000008871Z" clip-rule="evenodd"/>
</clipPath>
<clipPath id="clip_141">
<path transform="matrix(1,0,0,-1,0,841.92)" d="M.000008871 0H595.32V841.92H.000008871Z" clip-rule="evenodd"/>
</clipPath>
<clipPath id="clip_142">
<path transform="matrix(1,0,0,-1,0,841.92)" d="M.000008871 0H595.32V841.92H.000008871Z" clip-rule="evenodd"/>
</clipPath>
<clipPath id="clip_143">
<path transform="matrix(1,0,0,-1,0,841.92)" d="M.000008871 0H595.32V841.92H.000008871Z" clip-rule="evenodd"/>
</clipPath>
<clipPath id="clip_144">
<path transform="matrix(1,0,0,-1,0,841.92)" d="M.000008871 0H595.32V841.92H.000008871Z" clip-rule="evenodd"/>
</clipPath>
<clipPath id="clip_145">
<path transform="matrix(1,0,0,-1,0,841.92)" d="M.000008871 0H595.32V841.92H.000008871Z" clip-rule="evenodd"/>
</clipPath>
<clipPath id="clip_146">
<path transform="matrix(1,0,0,-1,0,841.92)" d="M.000008871 0H595.32V841.92H.000008871Z" clip-rule="evenodd"/>
</clipPath>
<clipPath id="clip_147">
<path transform="matrix(1,0,0,-1,0,841.92)" d="M.000008871 0H595.32V841.92H.000008871Z" clip-rule="evenodd"/>
</clipPath>
<clipPath id="clip_148">
<path transform="matrix(1,0,0,-1,0,841.92)" d="M.000008871 0H595.32V841.92H.000008871Z" clip-rule="evenodd"/>
</clipPath>
<clipPath id="clip_149">
<path transform="matrix(1,0,0,-1,0,841.92)" d="M.000008871 0H595.32V841.92H.000008871Z" clip-rule="evenodd"/>
</clipPath>
<clipPath id="clip_150">
<path transform="matrix(1,0,0,-1,0,841.92)" d="M.000008871 0H595.32V841.92H.000008871Z" clip-rule="evenodd"/>
</clipPath>
<clipPath id="clip_151">
<path transform="matrix(1,0,0,-1,0,841.92)" d="M.000008871 0H595.32V841.92H.000008871Z" clip-rule="evenodd"/>
</clipPath>
<clipPath id="clip_152">
<path transform="matrix(1,0,0,-1,0,841.92)" d="M.000008871 0H595.32V841.92H.000008871Z" clip-rule="evenodd"/>
</clipPath>
<clipPath id="clip_153">
<path transform="matrix(1,0,0,-1,0,841.92)" d="M.000008871 0H595.32V841.92H.000008871Z" clip-rule="evenodd"/>
</clipPath>
<clipPath id="clip_154">
<path transform="matrix(1,0,0,-1,0,841.92)" d="M.000008871 0H595.32V841.92H.000008871Z" clip-rule="evenodd"/>
</clipPath>
<clipPath id="clip_155">
<path transform="matrix(1,0,0,-1,0,841.92)" d="M.000008871 0H595.32V841.92H.000008871Z" clip-rule="evenodd"/>
</clipPath>
<clipPath id="clip_156">
<path transform="matrix(1,0,0,-1,0,841.92)" d="M.000008871 0H595.32V841.92H.000008871Z" clip-rule="evenodd"/>
</clipPath>
<clipPath id="clip_157">
<path transform="matrix(1,0,0,-1,0,841.92)" d="M.000008871 0H595.32V841.92H.000008871Z" clip-rule="evenodd"/>
</clipPath>
<clipPath id="clip_158">
<path transform="matrix(1,0,0,-1,0,841.92)" d="M.000008871 0H595.32V841.92H.000008871Z" clip-rule="evenodd"/>
</clipPath>
<clipPath id="clip_159">
<path transform="matrix(1,0,0,-1,0,841.92)" d="M.000008871 0H595.32V841.92H.000008871Z" clip-rule="evenodd"/>
</clipPath>
<clipPath id="clip_160">
<path transform="matrix(1,0,0,-1,0,841.92)" d="M.000008871 0H595.32V841.92H.000008871Z" clip-rule="evenodd"/>
</clipPath>
<clipPath id="clip_161">
<path transform="matrix(1,0,0,-1,0,841.92)" d="M.000008871 0H595.32V841.92H.000008871Z" clip-rule="evenodd"/>
</clipPath>
<clipPath id="clip_162">
<path transform="matrix(1,0,0,-1,0,841.92)" d="M.000008871 0H595.32V841.92H.000008871Z" clip-rule="evenodd"/>
</clipPath>
<clipPath id="clip_163">
<path transform="matrix(1,0,0,-1,0,841.92)" d="M.000008871 0H595.32V841.92H.000008871Z" clip-rule="evenodd"/>
</clipPath>
<clipPath id="clip_164">
<path transform="matrix(1,0,0,-1,0,841.92)" d="M.000008871 0H595.32V841.92H.000008871Z" clip-rule="evenodd"/>
</clipPath>
<clipPath id="clip_165">
<path transform="matrix(1,0,0,-1,0,841.92)" d="M.000008871 0H595.32V841.92H.000008871Z" clip-rule="evenodd"/>
</clipPath>
<clipPath id="clip_166">
<path transform="matrix(1,0,0,-1,0,841.92)" d="M.000008871 0H595.32V841.92H.000008871Z" clip-rule="evenodd"/>
</clipPath>
<clipPath id="clip_167">
<path transform="matrix(1,0,0,-1,0,841.92)" d="M.000008871 0H595.32V841.92H.000008871Z" clip-rule="evenodd"/>
</clipPath>
<clipPath id="clip_168">
<path transform="matrix(1,0,0,-1,0,841.92)" d="M.000008871 0H595.32V841.92H.000008871Z" clip-rule="evenodd"/>
</clipPath>
<clipPath id="clip_169">
<path transform="matrix(1,0,0,-1,0,841.92)" d="M.000008871 0H595.32V841.92H.000008871Z" clip-rule="evenodd"/>
</clipPath>
<clipPath id="clip_170">
<path transform="matrix(1,0,0,-1,0,841.92)" d="M.000008871 0H595.32V841.92H.000008871Z" clip-rule="evenodd"/>
</clipPath>
<clipPath id="clip_171">
<path transform="matrix(1,0,0,-1,0,841.92)" d="M.000008871 0H595.32V841.92H.000008871Z" clip-rule="evenodd"/>
</clipPath>
<clipPath id="clip_172">
<path transform="matrix(1,0,0,-1,0,841.92)" d="M.000008871 0H595.32V841.92H.000008871Z" clip-rule="evenodd"/>
</clipPath>
<clipPath id="clip_173">
<path transform="matrix(1,0,0,-1,0,841.92)" d="M.000008871 0H595.32V841.92H.000008871Z" clip-rule="evenodd"/>
</clipPath>
<clipPath id="clip_174">
<path transform="matrix(1,0,0,-1,0,841.92)" d="M.000008871 0H595.32V841.92H.000008871Z" clip-rule="evenodd"/>
</clipPath>
<clipPath id="clip_175">
<path transform="matrix(1,0,0,-1,0,841.92)" d="M.000008871 0H595.32V841.92H.000008871Z" clip-rule="evenodd"/>
</clipPath>
<clipPath id="clip_176">
<path transform="matrix(1,0,0,-1,0,841.92)" d="M.000008871 0H595.32V841.92H.000008871Z" clip-rule="evenodd"/>
</clipPath>
<clipPath id="clip_177">
<path transform="matrix(1,0,0,-1,0,841.92)" d="M.000008871 0H595.32V841.92H.000008871Z" clip-rule="evenodd"/>
</clipPath>
<clipPath id="clip_178">
<path transform="matrix(1,0,0,-1,0,841.92)" d="M.000008871 0H595.32V841.92H.000008871Z" clip-rule="evenodd"/>
</clipPath>
<clipPath id="clip_179">
<path transform="matrix(1,0,0,-1,0,841.92)" d="M.000008871 0H595.32V841.92H.000008871Z" clip-rule="evenodd"/>
</clipPath>
<clipPath id="clip_180">
<path transform="matrix(1,0,0,-1,0,841.92)" d="M.000008871 0H595.32V841.92H.000008871Z" clip-rule="evenodd"/>
</clipPath>
<clipPath id="clip_181">
<path transform="matrix(1,0,0,-1,0,841.92)" d="M.000008871 0H595.32V841.92H.000008871Z" clip-rule="evenodd"/>
</clipPath>
<clipPath id="clip_182">
<path transform="matrix(1,0,0,-1,0,841.92)" d="M.000008871 0H595.32V841.92H.000008871Z" clip-rule="evenodd"/>
</clipPath>
<clipPath id="clip_183">
<path transform="matrix(1,0,0,-1,0,841.92)" d="M.000008871 0H595.32V841.92H.000008871Z" clip-rule="evenodd"/>
</clipPath>
<clipPath id="clip_184">
<path transform="matrix(1,0,0,-1,0,841.92)" d="M.000008871 0H595.32V841.92H.000008871Z" clip-rule="evenodd"/>
</clipPath>
<clipPath id="clip_185">
<path transform="matrix(1,0,0,-1,0,841.92)" d="M.000008871 0H595.32V841.92H.000008871Z" clip-rule="evenodd"/>
</clipPath>
<clipPath id="clip_186">
<path transform="matrix(1,0,0,-1,0,841.92)" d="M.000008871 0H595.32V841.92H.000008871Z" clip-rule="evenodd"/>
</clipPath>
<clipPath id="clip_187">
<path transform="matrix(1,0,0,-1,0,841.92)" d="M.000008871 0H595.32V841.92H.000008871Z" clip-rule="evenodd"/>
</clipPath>
<clipPath id="clip_188">
<path transform="matrix(1,0,0,-1,0,841.92)" d="M.000008871 0H595.32V841.92H.000008871Z" clip-rule="evenodd"/>
</clipPath>
<clipPath id="clip_189">
<path transform="matrix(1,0,0,-1,0,841.92)" d="M.000008871 0H595.32V841.92H.000008871Z" clip-rule="evenodd"/>
</clipPath>
<clipPath id="clip_190">
<path transform="matrix(1,0,0,-1,0,841.92)" d="M.000008871 0H595.32V841.92H.000008871Z" clip-rule="evenodd"/>
</clipPath>
<clipPath id="clip_191">
<path transform="matrix(1,0,0,-1,0,841.92)" d="M.000008871 0H595.32V841.92H.000008871Z" clip-rule="evenodd"/>
</clipPath>
</defs>
<g>
<g clip-path="url(#clip_0)">
<text xml:space="preserve" transform="matrix(1 0 -0 1 0 841.92)" font-size="36" font-family="Arial" font-weight="bold"><tspan y="-772.2" x="36 65.98801 93.99601 119.988018 145.98001 175.96802 205.95603 232.05603 258.04804 268.05604 294.04804 320.04005 344.05204 368.06404 394.12803 416.12403">MOHAMMAD KAYYALI</tspan></text>
</g>
<g clip-path="url(#clip_1)">
<text xml:space="preserve" transform="matrix(1 0 -0 1 0 841.92)" font-size="36" font-family="Arial" font-weight="bold"><tspan y="-772.2" x="426.19"> </tspan></text>
</g>
<g clip-path="url(#clip_2)">
<text xml:space="preserve" transform="matrix(1 0 -0 1 0 841.92)" font-size="15.96" font-family="Arial" font-weight="bold"><tspan y="-741.46" x="36 46.64532 56.39688 61.711565 67.05817 79.4112 88.284969 94.49341 103.36717 107.804058 118.64089 128.39246 138.08017 142.62877 152.46013 161.3339 170.20766 176.41609 180.85297 186.16765 197.69077 207.52213 212.8368 222.62029 236.80873 245.6825 250.93334 255.48194 265.2335 275.03294 279.46983 290.99296 295.42985 306.07518 314.9489 323.85459 333.60615 339.81459 344.25148 349.64595 358.51969">Software Engineer (Automation &#x0026; Security)</tspan></text>
</g>
<g clip-path="url(#clip_3)">
<text xml:space="preserve" transform="matrix(1 0 -0 1 0 841.92)" font-size="15.96" font-family="Arial" font-weight="bold"><tspan y="-741.46" x="364.15"> </tspan></text>
</g>
<g clip-path="url(#clip_4)">
</g>
<g clip-path="url(#clip_5)">
<text xml:space="preserve" transform="matrix(1 0 -0 1 0 841.92)" font-size="15.96" font-family="Arial" font-weight="bold"><tspan y="-712.18" x="36 47.52312 59.876165 71.399288 81.21469 92.73781 104.260929 114.076328 118.51321 122.95009 134.58493 144.33649 156.75337 168.27649 181.60309 193.1262 202.9416 207.37848 219.74748">CONTACT INFORMATION</tspan></text>
</g>
<g clip-path="url(#clip_6)">
<text xml:space="preserve" transform="matrix(1 0 -0 1 0 841.92)" font-size="15.96" font-family="Arial" font-weight="bold"><tspan y="-712.18" x="231.53"> </tspan></text>
</g>
<g clip-path="url(#clip_7)">
<path transform="matrix(1,0,0,-1,0,841.92)" d="M34.56 704.5H560.86V705.22H34.56Z" fill-rule="evenodd"/>
</g>
<g clip-path="url(#clip_8)">
<g clip-path="url(#clip_9)">
<text xml:space="preserve" transform="matrix(1 0 -0 1 0 841.92)" font-size="11.04" font-family="SymbolMT"><tspan y="-685.42" x="59.424">&#x2022;</tspan></text>
</g>
<g clip-path="url(#clip_10)">
<text xml:space="preserve" transform="matrix(1 0 -0 1 0 841.92)" font-size="11.04" font-family="ArialMT"><tspan y="-685.42" x="64.464"> </tspan></text>
</g>
<g clip-path="url(#clip_11)">
<text xml:space="preserve" transform="matrix(1 0 -0 1 0 841.92)" font-size="11.04" font-family="Arial" font-weight="bold"><tspan y="-685.42" x="77.424 86.65344 93.39888 100.08912 103.092 106.205287">Mobile</tspan></text>
</g>
<g clip-path="url(#clip_12)">
<text xml:space="preserve" transform="matrix(1 0 -0 1 0 841.92)" font-size="11.04" font-family="ArialMT"><tspan y="-685.42" x="112.34 115.34288 118.45616 122.05521 128.50257 134.64081 140.77906 146.9173 150.49425 153.60753 159.74578 165.85089 171.98914 178.09426 184.2325 190.33762 196.33234 202.47058">: (+962) 796214574</tspan></text>
</g>
<g clip-path="url(#clip_13)">
<text xml:space="preserve" transform="matrix(1 0 -0 1 0 841.92)" font-size="11.04" font-family="ArialMT"><tspan y="-685.42" x="208.61"> </tspan></text>
</g>
</g>
<g clip-path="url(#clip_14)">
<g clip-path="url(#clip_15)">
<text xml:space="preserve" transform="matrix(1 0 -0 1 0 841.92)" font-size="11.04" font-family="SymbolMT"><tspan y="-685.42" x="320.83">&#x2022;</tspan></text>
</g>
<g clip-path="url(#clip_16)">
<text xml:space="preserve" transform="matrix(1 0 -0 1 0 841.92)" font-size="11.04" font-family="ArialMT"><tspan y="-685.42" x="325.87"> </tspan></text>
</g>
<g clip-path="url(#clip_17)">
<text xml:space="preserve" transform="matrix(1 0 -0 1 0 841.92)" font-size="11.04" font-family="Arial" font-weight="bold"><tspan y="-685.42" x="338.83 347.46327 350.46614 354.17558 362.09126 368.8367">GitHub</tspan></text>
</g>
<g clip-path="url(#clip_18)">
<text xml:space="preserve" transform="matrix(1 0 -0 1 0 841.92)" font-size="11.04" font-family="ArialMT"><tspan y="-685.42" x="375.55 378.55003">: </tspan></text>
</g>
<g clip-path="url(#clip_19)">
<text xml:space="preserve" transform="matrix(1 0 -0 1 0 841.92)" font-size="11.04" font-family="ArialMT"><tspan y="-685.42" x="381.67 390.31004">QX</tspan></text>
</g>
<g clip-path="url(#clip_20)">
<text xml:space="preserve" transform="matrix(1 0 -0 1 0 841.92)" font-size="11.04" font-family="ArialMT"><tspan y="-685.42" x="397.51">-</tspan></text>
</g>
<g clip-path="url(#clip_21)">
<text xml:space="preserve" transform="matrix(1 0 -0 1 0 841.92)" font-size="11.04" font-family="ArialMT"><tspan y="-685.42" x="401.23 410.45945 416.5977 422.70283 428.69755 432.40699 438.54524 441.61436 447.64219">Moderator</tspan></text>
</g>
<g clip-path="url(#clip_22)">
<text xml:space="preserve" transform="matrix(1 0 -0 1 0 841.92)" font-size="11.04" font-family="ArialMT"><tspan y="-685.42" x="451.3"> </tspan></text>
</g>
<path transform="matrix(1,0,0,-1,0,841.92)" d="M381.67 683.38H451.294V684.22006H381.67Z" fill-rule="evenodd"/>
</g>
<g clip-path="url(#clip_23)">
<g clip-path="url(#clip_24)">
<text xml:space="preserve" transform="matrix(1 0 -0 1 0 841.92)" font-size="11.04" font-family="SymbolMT"><tspan y="-670.06" x="59.424">&#x2022;</tspan></text>
</g>
<g clip-path="url(#clip_25)">
<text xml:space="preserve" transform="matrix(1 0 -0 1 0 841.92)" font-size="11.04" font-family="ArialMT"><tspan y="-670.06" x="64.464"> </tspan></text>
</g>
<g clip-path="url(#clip_26)">
<text xml:space="preserve" transform="matrix(1 0 -0 1 0 841.92)" font-size="11.04" font-family="Arial" font-weight="bold"><tspan y="-670.06" x="77.424 84.74352 94.55808 100.69632 103.8096">Email</tspan></text>
</g>
<g clip-path="url(#clip_27)">
<text xml:space="preserve" transform="matrix(1 0 -0 1 0 841.92)" font-size="11.04" font-family="ArialMT"><tspan y="-670.06" x="106.82 109.93328 112.936168 122.1656 128.30385 134.40897 140.40369 149.63314 158.86258 165.00083 170.98451 176.50452 182.64276 188.16277 193.68277 199.66646 202.06214 204.45781 210.59606 216.70117 227.86261 234.00086 243.19718 249.33542 251.74214 254.13782 257.2511 262.7711 268.90934">: mohammadkayyali15@gmail.com</tspan></text>
</g>
<g clip-path="url(#clip_28)">
<text xml:space="preserve" transform="matrix(1 0 -0 1 0 841.92)" font-size="11.04" font-family="ArialMT"><tspan y="-670.06" x="278.09"> </tspan></text>
</g>
</g>
<g clip-path="url(#clip_29)">
<g clip-path="url(#clip_30)">
<text xml:space="preserve" transform="matrix(1 0 -0 1 0 841.92)" font-size="11.04" font-family="SymbolMT"><tspan y="-670.06" x="320.83">&#x2022;</tspan></text>
</g>
<g clip-path="url(#clip_31)">
<text xml:space="preserve" transform="matrix(1 0 -0 1 0 841.92)" font-size="11.04" font-family="ArialMT"><tspan y="-670.06" x="325.87"> </tspan></text>
</g>
<g clip-path="url(#clip_32)">
<text xml:space="preserve" transform="matrix(1 0 -0 1 0 841.92)" font-size="11.04" font-family="Arial" font-weight="bold"><tspan y="-670.06" x="338.83 345.57545 348.64457 355.39 361.52827 367.6334 374.37886 377.44798">LinkedIN</tspan></text>
</g>
<g clip-path="url(#clip_33)">
<text xml:space="preserve" transform="matrix(1 0 -0 1 0 841.92)" font-size="11.04" font-family="ArialMT"><tspan y="-670.06" x="385.39 388.39006">: </tspan></text>
</g>
<g clip-path="url(#clip_34)">
<text xml:space="preserve" transform="matrix(1 0 -0 1 0 841.92)" font-size="11.04" font-family="ArialMT"><tspan y="-670.06" x="391.39 400.61946 406.7577 412.86283 419.00108 428.09803 437.32746 443.4657 449.57084 456.76893 462.90718 468.42716 473.94715 480.05229 482.44795">MohammadKayyali</tspan></text>
</g>
<g clip-path="url(#clip_35)">
<text xml:space="preserve" transform="matrix(1 0 -0 1 0 841.92)" font-size="11.04" font-family="ArialMT"><tspan y="-670.06" x="484.9 491.02003">15</tspan></text>
</g>
<g clip-path="url(#clip_36)">
<text xml:space="preserve" transform="matrix(1 0 -0 1 0 841.92)" font-size="11.04" font-family="ArialMT"><tspan y="-670.06" x="497.14"> </tspan></text>
</g>
<path transform="matrix(1,0,0,-1,0,841.92)" d="M391.39 668.02H497.13V668.86007H391.39Z" fill-rule="evenodd"/>
</g>
<g clip-path="url(#clip_37)">
<text xml:space="preserve" transform="matrix(1 0 -0 1 0 841.92)" font-size="15.96" font-family="Arial" font-weight="bold"><tspan y="-650.86" x="36"> </tspan></text>
</g>
<g clip-path="url(#clip_38)">
<text xml:space="preserve" transform="matrix(1 0 -0 1 0 841.92)" font-size="15.96" font-family="Arial" font-weight="bold"><tspan y="-624.46" x="36 46.64532 58.16844 70.58532 80.27304 90.918369 101.61157 112.2569 116.83742 129.19046 140.80934 152.42823 162.17978 166.61666 177.26198 188.7851 202.07978 215.40637 226.92949 238.4526">PROFESSIONAL SUMMARY</tspan></text>
</g>
<g clip-path="url(#clip_39)">
<text xml:space="preserve" transform="matrix(1 0 -0 1 0 841.92)" font-size="15.96" font-family="Arial" font-weight="bold"><tspan y="-624.46" x="249.41"> </tspan></text>
</g>
<g clip-path="url(#clip_40)">
</g>
<g clip-path="url(#clip_41)">
<text xml:space="preserve" transform="matrix(1 0 -0 1 0 841.92)" font-size="11.04" font-family="ArialMT"><tspan y="-599.98" x="36 43.319524 48.839525 54.977766 61.082887 64.79233 67.18801 73.32625 79.431369 84.95136 91.0896 97.19472 100.308 107.62752 113.765758 116.74656 119.85984 127.77552 133.91376 137.59008 143.61792 146.7312 153.92928 160.06752 166.17264 168.56832 174.70656 180.81168 186.94992 190.62624 193.7616 201.67728 204.07295 207.18624 213.32448 216.3936 222.42145 228.8688 232.01522 237.53522 243.67346 249.65715 253.3666 258.76518 261.87846 267.39845 273.39317 279.5314 285.0514 287.436 293.57426 295.95887 298.35453 303.8745 306.27018 312.40843 318.51356 321.62684 324.0225 330.16075 333.22987 339.3681 345.50636 348.60859 354.74684 363.94316 370.0814 373.19468 375.59034 381.72859 387.71226 390.82554 393.8284 399.3484 405.48664 411.00663 417.11177 420.8212 423.21687 426.33015 431.7287 434.84199 437.95527 444.0935 449.46998 452.58326 454.9789 461.11717 467.2223 470.22517 473.33845 479.47669 485.58183 491.72007 494.70088 497.81416 503.9524 506.337">Experienced Software Engineer with 4+ years specializing in automation, security testing, and full</tspan></text>
</g>
<g clip-path="url(#clip_42)">
<text xml:space="preserve" transform="matrix(1 0 -0 1 0 841.92)" font-size="11.04" font-family="ArialMT"><tspan y="-599.98" x="509.02">-</tspan></text>
</g>
<g clip-path="url(#clip_43)">
<text xml:space="preserve" transform="matrix(1 0 -0 1 0 841.92)" font-size="11.04" font-family="ArialMT"><tspan y="-599.98" x="512.62 518.14 521.2533 527.39157 532.91159 538.2881">stack </tspan></text>
</g>
<g clip-path="url(#clip_44)">
</g>
<g clip-path="url(#clip_45)">
<text xml:space="preserve" transform="matrix(1 0 -0 1 0 841.92)" font-size="11.04" font-family="ArialMT"><tspan y="-585.46" x="36 43.91568 50.05392 56.159044 59.27232 65.41056 71.51568 77.035678 83.17391 85.558559 91.69679 97.80191 107.03135 113.169589 119.274707 122.27759 125.39087 128.50415 135.70223 139.41167 145.54991 148.61904 151.06992 156.4464 158.84207 164.98032 171.08544 174.19872 177.312 179.70767 185.84592 188.91504 196.27872 201.79872 204.90097 211.03922 217.14434 223.13906 226.14194 229.25522 237.1709 243.30915 246.37827 249.52468 255.66292 261.76805 267.76277 270.87605 276.2746 282.41285 287.93284 294.03797 301.35749 306.87748 310.5869 312.98258 319.12083 322.18995 325.33634 333.252 335.64768 338.76097 344.75569 347.86897 354.0072 359.99089 369.2203 375.35856 381.46369 386.98368 389.98655 393.5856 399.72386 402.79298 408.9312 415.06947 418.1717 424.30995 429.82994 435.93507 441.92979 445.63923 448.7525 451.14817 456.66816 462.66288 465.77616 468.1718 474.31007 477.37919 483.51744 489.65568 492.05134 494.447 500.58525 502.96986 509.1081 515.2132 518.3265 523.8465 529.3665 535.50479 537.8894 544.02767 550.13278 552.52847 558.6667">web development. Proficient in Python, C#, and JavaScript with demonstrated expertise in building scalable </tspan></text>
</g>
<g clip-path="url(#clip_46)">
<text xml:space="preserve" transform="matrix(1 0 -0 1 0 841.92)" font-size="11.04" font-family="ArialMT"><tspan y="-570.91" x="36 42.13824 48.243364 51.35664 57.49488 66.6912 72.71904 75.83232 78.228008 84.36624 90.47136 93.58464 96.587528 100.29697 106.29169 115.521129 121.65936 129.56401 135.70226 139.37857 144.89858 150.31922 153.4325 156.43538 158.83106 164.9693 171.07442 177.21266 180.28179 182.73267 185.80179 191.3218 193.77268 199.87779 206.01604 209.08516 214.60517 218.34772 220.633 223.74628 226.14196 231.66196 237.8002 240.18485">automation frameworks, identifying critical </tspan></text>
</g>
<g clip-path="url(#clip_47)">
<text xml:space="preserve" transform="matrix(1 0 -0 1 0 841.92)" font-size="11.04" font-family="ArialMT"><tspan y="-570.91" x="243.41 248.93001 255.06826 260.58827 266.6934 270.40284 272.7985 275.80137 281.32136 284.43464 289.95463 296.09288 298.47749 304.61573 310.72087 314.4303 320.56855 326.67369 329.06935 331.465 333.86067 336.97395 339.3696 345.50785 351.02784 354.09696 357.24336 363.3816 369.48674 375.48146 378.59474 384.73298 390.8381 393.9514 396.23667 405.4661 407.86177 413.38175 415.7774 421.91566 428.02079 431.13407 437.2723 443.37745 448.89744 455.03569 457.4203 463.55854 469.66368 478.8931 485.03135 491.015 494.1283 497.24159 505.15727 511.15199 514.75106 520.27108 523.38436 525.78 531.9183 539.82296 545.34298 548.45626">security vulnerabilities, and optimizing development workflows. </tspan></text>
</g>
<g clip-path="url(#clip_48)">
<text xml:space="preserve" transform="matrix(1 0 -0 1 0 841.92)" font-size="11.04" font-family="ArialMT"><tspan y="-556.27" x="36 43.319524 47.02896 53.167203 58.687204 64.79232 70.93056 73.91136 77.02464 80.734088 86.87232 92.39232 97.7688 100.88208 104.59152 110.58624 116.10624 122.24448 125.9208 131.94864 135.06192 141.20017 144.18097 147.29425 151.0037 156.99842 163.13666 169.24178 174.76178 177.15746 183.2957 189.40082 192.5141 201.74355 207.88179 213.98691 220.12516 226.23027 228.62595 231.73923 237.73395 241.44339 247.58164 253.10164 259.20677 264.72676 270.24674 276.24147 281.76145 284.87474 291.01298 296.53297 299.60209 305.74034 311.75715 314.87043 317.8733 324.01155 327.08067 333.2189 339.23573 349.0503 352.07527 355.18855 361.32679 365.0031 371.14137 377.2796 383.41786 389.3905 392.50379 394.89945 401.0377 407.14283 413.28108 418.80107 424.9062 428.01948 430.41514 435.93513 442.07337 445.1425 450.66249 456.09416 459.8036 462.19926 468.3375 471.40663 473.85749 479.96263 486.10087 489.16999 494.68998 500.82823 503.24598 509.2407 512.354 514.7497 520.88796 526.99307 532.51309 535.62637 541.7646 547.8697 554.00796">Proven track record of reducing manual processes by up to 70% through innovative scripting solutions and </tspan></text>
</g>
<g clip-path="url(#clip_49)">
<text xml:space="preserve" transform="matrix(1 0 -0 1 0 841.92)" font-size="11.04" font-family="ArialMT"><tspan y="-541.63" x="36 39.70944 45.84768 51.9528 58.09104 63.611043 66.59184 69.705127 72.818408 78.95664 84.33312 87.4464 89.84209 95.98032 102.08544 105.088329 114.317768 120.456 123.52512 129.66336 135.8016 141.93985 148.03394 150.42961 156.42433 162.56258 164.94722 171.08547 176.60547">robust testing methodologies.</tspan></text>
</g>
<g clip-path="url(#clip_50)">
<text xml:space="preserve" transform="matrix(1 0 -0 1 0 841.92)" font-size="11.04" font-family="ArialMT"><tspan y="-541.63" x="179.78"> </tspan></text>
</g>
<g clip-path="url(#clip_51)">
<text xml:space="preserve" transform="matrix(1 0 -0 1 0 841.92)" font-size="15.96" font-family="Arial" font-weight="bold"><tspan y="-514.51" x="36">W</tspan></text>
</g>
<g clip-path="url(#clip_52)">
<text xml:space="preserve" transform="matrix(1 0 -0 1 0 841.92)" font-size="15.96" font-family="Arial" font-weight="bold"><tspan y="-514.51" x="51.12 63.47304 74.99616 86.51929 90.95617 101.60149 112.29469 122.94002 133.63323 145.15634 149.70494 160.35027 171.87339 183.3965">ORK EXPERIENCE</tspan></text>
</g>
<g clip-path="url(#clip_53)">
<text xml:space="preserve" transform="matrix(1 0 -0 1 0 841.92)" font-size="15.96" font-family="Arial" font-weight="bold"><tspan y="-514.51" x="194.21"> </tspan></text>
</g>
<g clip-path="url(#clip_54)">
<path transform="matrix(1,0,0,-1,0,841.92)" d="M34.56 506.95H560.86V507.43003H34.56Z" fill-rule="evenodd"/>
</g>
<g clip-path="url(#clip_55)">
<text xml:space="preserve" transform="matrix(1 0 -0 1 0 841.92)" font-size="12" font-family="Arial" font-weight="bold"><tspan y="-487.63" x="36 45.336 54 57.336 65.38799 72.71999 76.668 80.664 90 96.696 101.364 108.08399 111.32399 118.75199 125.352 132.06 136.056 142.728">QA/Software Tester</tspan></text>
</g>
<g clip-path="url(#clip_56)">
<text xml:space="preserve" transform="matrix(1 0 -0 1 0 841.92)" font-size="12" font-family="Arial" font-weight="bold"><tspan y="-487.63" x="147.38"> </tspan></text>
</g>
<g clip-path="url(#clip_57)">
<text xml:space="preserve" transform="matrix(1 0 -0 1 0 841.92)" font-size="9.96" font-family="Arial" font-weight="bold"><tspan y="-465.67" x="36 43.78872 49.8942 52.66308 55.431959 61.517518 67.055278 69.82416 76.41768 79.28616 84.82392 88.1406 91.517047 97.62252 101.46709">Online Platform</tspan></text>
</g>
<g clip-path="url(#clip_58)">
<text xml:space="preserve" transform="matrix(1 0 -0 1 0 841.92)" font-size="9.96" font-family="Arial" font-weight="bold"><tspan y="-465.67" x="110.42"> </tspan></text>
</g>
<g clip-path="url(#clip_59)">
<text xml:space="preserve" transform="matrix(1 0 -0 1 0 841.92)" font-size="9.96" font-family="Arial" font-weight="bold"><tspan y="-465.67" x="113.18 115.94888 118.8074 125.41088 130.94864 134.77327">/ Part</tspan></text>
</g>
<g clip-path="url(#clip_60)">
<text xml:space="preserve" transform="matrix(1 0 -0 1 0 841.92)" font-size="9.96" font-family="Arial" font-weight="bold"><tspan y="-465.67" x="138.14">-</tspan></text>
</g>
<g clip-path="url(#clip_61)">
<text xml:space="preserve" transform="matrix(1 0 -0 1 0 841.92)" font-size="9.96" font-family="Arial" font-weight="bold"><tspan y="-465.67" x="141.5 147.60547 150.47394 159.32839">Time</tspan></text>
</g>
<g clip-path="url(#clip_62)">
<text xml:space="preserve" transform="matrix(1 0 -0 1 0 841.92)" font-size="9.96" font-family="Arial" font-weight="bold"><tspan y="-465.67" x="164.9"> </tspan></text>
</g>
<g clip-path="url(#clip_63)">
<text xml:space="preserve" transform="matrix(1 0 -0 1 0 841.92)" font-size="9.96" font-family="Arial" font-weight="bold"><tspan y="-465.67" x="180.02"> </tspan></text>
</g>
<g clip-path="url(#clip_64)">
<text xml:space="preserve" transform="matrix(1 0 -0 1 0 841.92)" font-size="9.96" font-family="Arial" font-weight="bold"><tspan y="-465.67" x="216.05"> </tspan></text>
</g>
<g clip-path="url(#clip_65)">
<text xml:space="preserve" transform="matrix(1 0 -0 1 0 841.92)" font-size="9.96" font-family="Arial" font-weight="bold"><tspan y="-465.67" x="252.05"> </tspan></text>
</g>
<g clip-path="url(#clip_66)">
<text xml:space="preserve" transform="matrix(1 0 -0 1 0 841.92)" font-size="9.96" font-family="Arial" font-weight="bold"><tspan y="-465.67" x="288.05"> </tspan></text>
</g>
<g clip-path="url(#clip_67)">
<text xml:space="preserve" transform="matrix(1 0 -0 1 0 841.92)" font-size="9.96" font-family="Arial" font-weight="bold"><tspan y="-465.67" x="324.07"> </tspan></text>
</g>
<g clip-path="url(#clip_68)">
<text xml:space="preserve" transform="matrix(1 0 -0 1 0 841.92)" font-size="9.96" font-family="Arial" font-weight="bold"><tspan y="-465.67" x="360.07 362.83003 365.59004 368.35005 371.11006 373.87007 376.63008 379.39009 382.1501 385.01966 387.77967 390.53968 393.29969 396.0597 398.8197 401.5797">                </tspan></text>
</g>
<g clip-path="url(#clip_69)">
<text xml:space="preserve" transform="matrix(1 0 -0 1 0 841.92)" font-size="9.96" font-family="Arial" font-weight="bold"><tspan y="-465.67" x="404.47 411.0735 416.61125 422.6968 426.0633 431.69068 440.5451 446.68049 452.21824">September</tspan></text>
</g>
<g clip-path="url(#clip_70)">
<text xml:space="preserve" transform="matrix(1 0 -0 1 0 841.92)" font-size="9.96" font-family="Arial" font-weight="bold"><tspan y="-465.67" x="456.1"> </tspan></text>
</g>
<g clip-path="url(#clip_71)">
<text xml:space="preserve" transform="matrix(1 0 -0 1 0 841.92)" font-size="9.96" font-family="Arial" font-weight="bold"><tspan y="-465.67" x="458.98 464.49998">20</tspan></text>
</g>
<g clip-path="url(#clip_72)">
<text xml:space="preserve" transform="matrix(1 0 -0 1 0 841.92)" font-size="9.96" font-family="Arial" font-weight="bold"><tspan y="-465.67" x="470.02 475.65977">24</tspan></text>
</g>
<g clip-path="url(#clip_73)">
<text xml:space="preserve" transform="matrix(1 0 -0 1 0 841.92)" font-size="9.96" font-family="Arial" font-weight="bold"><tspan y="-465.67" x="481.3"> </tspan></text>
</g>
<g clip-path="url(#clip_74)">
<text xml:space="preserve" transform="matrix(1 0 -0 1 0 841.92)" font-size="9.96" font-family="Arial" font-weight="bold"><tspan y="-465.67" x="484.06">&#x2013;</tspan></text>
</g>
<g clip-path="url(#clip_75)">
<text xml:space="preserve" transform="matrix(1 0 -0 1 0 841.92)" font-size="9.96" font-family="Arial" font-weight="bold"><tspan y="-465.67" x="489.58"> </tspan></text>
</g>
<g clip-path="url(#clip_76)">
<text xml:space="preserve" transform="matrix(1 0 -0 1 0 841.92)" font-size="9.96" font-family="Arial" font-weight="bold"><tspan y="-465.67" x="492.34 499.05305 502.8976 508.43537 514.04287 519.5806 525.6662">Present</tspan></text>
</g>
<g clip-path="url(#clip_77)">
<text xml:space="preserve" transform="matrix(1 0 -0 1 0 841.92)" font-size="9.96" font-family="Arial" font-weight="bold"><tspan y="-465.67" x="529.06"> </tspan></text>
</g>
<g clip-path="url(#clip_78)">
<text xml:space="preserve" transform="matrix(1 0 -0 1 0 841.92)" font-size="9.96" font-family="SymbolMT"><tspan y="-443.47" x="54">&#x2022;</tspan></text>
</g>
<g clip-path="url(#clip_79)">
<text xml:space="preserve" transform="matrix(1 0 -0 1 0 841.92)" font-size="9.96" font-family="ArialMT"><tspan y="-443.47" x="58.56"> </tspan></text>
</g>
<g clip-path="url(#clip_80)">
<text xml:space="preserve" transform="matrix(1 0 -0 1 0 841.92)" font-size="11.04" font-family="ArialMT"><tspan y="-443.47" x="72.024 79.93968 86.07792 91.597919 93.98256 100.1208 106.225917 109.339199 115.47743 121.58255 127.72079 130.7899 136.92815 142.44815 148.5864 154.1064 160.10112 163.2144 169.35265 172.42177 177.94178 183.96962 193.08866 199.2269 202.90322 209.04146 215.1797 221.31795 227.41204 232.93204 235.32772 240.84772 246.98596 249.96677 253.08005 259.2183 264.73829 267.7191 270.83238 276.35237 282.4906 284.8752 287.9885 294.12675 299.5032 302.6165 305.72978 311.7245 315.32356 318.43684 326.3525 332.49076 338.5959 341.70918 347.8474 353.95256 360.0908 362.4754 364.87107 370.39106 376.5293 379.59843 382.0493 388.15443 394.29267 399.81266 402.79347 405.90675 412.04499 418.15013 423.6701 429.80836 433.48469 435.79203 441.93028 448.0354 451.14869 457.28694 463.39207 466.50535 468.901 478.13044 484.26869 486.53187 489.64515 492.75843 498.89668 505.0018 510.40037 513.5137 515.90939 522.0476 528.1527 534.29098 536.6756 539.0713 542.1846 547.7046 550.70748">Design and execute comprehensive test suites for web applications, ensuring optimal functionality, </tspan></text>
</g>
<g clip-path="url(#clip_81)">
<text xml:space="preserve" transform="matrix(1 0 -0 1 0 841.92)" font-size="11.04" font-family="ArialMT"><tspan y="-428.95" x="72.024 78.16224 84.26736 87.9768 91.09008 97.0848 100.79424 110.02368 116.16192 122.26704 127.78703 133.78176 136.89504 140.00832 146.14656 152.25168 158.2464 161.35968 167.49793 173.01793 179.00162 182.71106 185.82434 191.81906 197.33907 203.47731 209.58243 213.29187 215.68755 221.82579 227.93091 233.45092 239.58916 242.65828 248.79653 254.20613 257.91557 264.0538 269.5738 274.95027 278.06355 287.29298 293.4312 295.81584 298.9291 301.32478 307.463 309.7262 315.86445 318.93357 325.0718 328.7923 334.93055 342.83518 348.35517 354.4934 358.07038 363.59037 366.70365 372.8419 378.94703 384.94175 388.05503 394.19328 400.2984 405.8184 408.21406 413.73405 419.87229 425.39228 428.37309">performance, and user experience across multiple browsers and devices. </tspan></text>
</g>
<g clip-path="url(#clip_82)">
<text xml:space="preserve" transform="matrix(1 0 -0 1 0 841.92)" font-size="9.96" font-family="Arial" font-weight="bold"><tspan y="-428.95" x="431.59"> </tspan></text>
</g>
<g clip-path="url(#clip_83)">
<text xml:space="preserve" transform="matrix(1 0 -0 1 0 841.92)" font-size="9.96" font-family="SymbolMT"><tspan y="-414.43" x="54">&#x2022;</tspan></text>
</g>
<g clip-path="url(#clip_84)">
<text xml:space="preserve" transform="matrix(1 0 -0 1 0 841.92)" font-size="9.96" font-family="ArialMT"><tspan y="-414.43" x="58.56"> </tspan></text>
</g>
<g clip-path="url(#clip_85)">
<text xml:space="preserve" transform="matrix(1 0 -0 1 0 841.92)" font-size="11.04" font-family="ArialMT"><tspan y="-414.43" x="72.024 79.93968 86.07792 88.46256 90.858249 96.99648 103.1016 109.23984 112.91616 119.0544 122.16768 128.30593 131.37505 139.34593 141.73058 144.84386 150.9821 154.05123 160.18947 166.32772 171.84772 177.98596 180.35956 186.4978 192.48149 201.71094 207.84918 213.9543 216.95719 220.07047 223.18375 229.32199 235.30568 244.53513 249.93369 253.04697 256.16026 262.15498 265.26826 267.6639 273.80216 279.9073 286.04554 289.11466 291.56553 294.63465 300.0663 303.1796 306.29289 312.2876 318.42585 323.94584 330.05097 339.2804 345.41865 351.52378 354.52665 357.63993 360.7532 366.89146 372.99659 378.9913 382.10459 385.70365 391.8419 397.36189 403.467 405.86268 411.38267 417.5209 420.59004 426.0217 429.73115 432.1268 435.24009 437.63575 443.15574 449.29399 451.6786 454.79188 460.9301 467.03526 473.1735 478.69349 481.6743 484.78758 487.18324 496.41267 502.40739 506.11683 512.25509 517.7751 520.1597 526.298 532.4031">Collaborate with development teams to identify, document, and resolve critical bugs, improving </tspan></text>
</g>
<g clip-path="url(#clip_86)">
<text xml:space="preserve" transform="matrix(1 0 -0 1 0 841.92)" font-size="11.04" font-family="ArialMT"><tspan y="-399.65" x="72.024 78.16224 83.682239 89.78735 93.496799 99.63503 102.01968 104.41536 107.52864 113.66688 117.3432 123.48144 129.61968 135.75792 141.12337 144.23665 147.34993 153.48818 159.59329 165.73154 168.11618 170.51186 173.62514 179.0237 182.13698 188.27523 194.25891 200.39716 203.46628 207.20883 213.34708 215.73172 218.1274 224.26564 230.37076 232.76644 235.16211 237.55779 240.67107 246.19107">overall product quality and reliability.</tspan></text>
</g>
<g clip-path="url(#clip_87)">
<text xml:space="preserve" transform="matrix(1 0 -0 1 0 841.92)" font-size="9.96" font-family="Arial" font-weight="bold"><tspan y="-399.65" x="249.41"> </tspan></text>
</g>
<g clip-path="url(#clip_88)">
<text xml:space="preserve" transform="matrix(1 0 -0 1 0 841.92)" font-size="12" font-family="Arial" font-weight="bold"><tspan y="-376.25" x="36">D</tspan></text>
</g>
<g clip-path="url(#clip_89)">
<text xml:space="preserve" transform="matrix(1 0 -0 1 0 841.92)" font-size="12" font-family="Arial" font-weight="bold"><tspan y="-376.25" x="44.64 51.348 55.343999 62.016 65.352 73.41599 80.74799 84.696 89.364 96.08399 99.41999 108.08399 111.41999 118.15199 122.71199">ata Entry Clerk</tspan></text>
</g>
<g clip-path="url(#clip_90)">
<text xml:space="preserve" transform="matrix(1 0 -0 1 0 841.92)" font-size="12" font-family="Arial" font-weight="bold"><tspan y="-376.25" x="129.38"> </tspan></text>
</g>
<g clip-path="url(#clip_91)">
<text xml:space="preserve" transform="matrix(1 0 -0 1 0 841.92)" font-size="9.96" font-family="Arial" font-weight="bold"><tspan y="-354.41" x="36 42.10548 45.95004 51.4878 56.98572 59.854204 65.39196 71.47752 77.01528 82.55304 85.32192 88.16052 90.929409 97.632488 103.17024 106.99489">Freelance / Part</tspan></text>
</g>
<g clip-path="url(#clip_92)">
<text xml:space="preserve" transform="matrix(1 0 -0 1 0 841.92)" font-size="9.96" font-family="Arial" font-weight="bold"><tspan y="-354.41" x="110.42">-</tspan></text>
</g>
<g clip-path="url(#clip_93)">
<text xml:space="preserve" transform="matrix(1 0 -0 1 0 841.92)" font-size="9.96" font-family="Arial" font-weight="bold"><tspan y="-354.41" x="113.78 119.885478 122.65436 131.5088 137.04657">Time </tspan></text>
</g>
<g clip-path="url(#clip_94)">
<text xml:space="preserve" transform="matrix(1 0 -0 1 0 841.92)" font-size="9.96" font-family="Arial" font-weight="bold"><tspan y="-354.41" x="139.94">&#x2013;</tspan></text>
</g>
<g clip-path="url(#clip_95)">
<text xml:space="preserve" transform="matrix(1 0 -0 1 0 841.92)" font-size="9.96" font-family="Arial" font-weight="bold"><tspan y="-354.41" x="145.46"> </tspan></text>
</g>
<g clip-path="url(#clip_96)">
<text xml:space="preserve" transform="matrix(1 0 -0 1 0 841.92)" font-size="9.96" font-family="Arial" font-weight="bold"><tspan y="-354.41" x="148.22 155.53064 164.38509 173.27938 178.81714 184.9027 187.67157 190.44045 195.97821 202.06377 205.9382 212.15325 217.69101">Amman, Jordan</tspan></text>
</g>
<g clip-path="url(#clip_97)">
<text xml:space="preserve" transform="matrix(1 0 -0 1 0 841.92)" font-size="9.96" font-family="Arial" font-weight="bold"><tspan y="-354.41" x="223.97"> </tspan></text>
</g>
<g clip-path="url(#clip_98)">
<text xml:space="preserve" transform="matrix(1 0 -0 1 0 841.92)" font-size="9.96" font-family="Arial" font-weight="bold"><tspan y="-354.41" x="252.05"> </tspan></text>
</g>
<g clip-path="url(#clip_99)">
<text xml:space="preserve" transform="matrix(1 0 -0 1 0 841.92)" font-size="9.96" font-family="Arial" font-weight="bold"><tspan y="-354.41" x="288.05"> </tspan></text>
</g>
<g clip-path="url(#clip_100)">
<text xml:space="preserve" transform="matrix(1 0 -0 1 0 841.92)" font-size="9.96" font-family="Arial" font-weight="bold"><tspan y="-354.41" x="324.07"> </tspan></text>
</g>
<g clip-path="url(#clip_101)">
<text xml:space="preserve" transform="matrix(1 0 -0 1 0 841.92)" font-size="9.96" font-family="Arial" font-weight="bold"><tspan y="-354.41" x="360.07"> </tspan></text>
</g>
<g clip-path="url(#clip_102)">
<text xml:space="preserve" transform="matrix(1 0 -0 1 0 841.92)" font-size="9.96" font-family="Arial" font-weight="bold"><tspan y="-354.41" x="396.07 398.83003 401.59004 404.35005 407.11006">     </tspan></text>
</g>
<g clip-path="url(#clip_103)">
<text xml:space="preserve" transform="matrix(1 0 -0 1 0 841.92)" font-size="9.96" font-family="Arial" font-weight="bold"><tspan y="-354.41" x="409.87 415.40776 420.90568 427.01118 433.24617 438.7839 442.60856 448.23594">January </tspan></text>
</g>
<g clip-path="url(#clip_104)">
<text xml:space="preserve" transform="matrix(1 0 -0 1 0 841.92)" font-size="9.96" font-family="Arial" font-weight="bold"><tspan y="-354.41" x="451.06 456.59776 462.20524 467.74299">2023</tspan></text>
</g>
<g clip-path="url(#clip_105)">
<text xml:space="preserve" transform="matrix(1 0 -0 1 0 841.92)" font-size="9.96" font-family="Arial" font-weight="bold"><tspan y="-354.41" x="473.26"> </tspan></text>
</g>
<g clip-path="url(#clip_106)">
<text xml:space="preserve" transform="matrix(1 0 -0 1 0 841.92)" font-size="9.96" font-family="Arial" font-weight="bold"><tspan y="-354.41" x="476.02">&#x2013;</tspan></text>
</g>
<g clip-path="url(#clip_107)">
<text xml:space="preserve" transform="matrix(1 0 -0 1 0 841.92)" font-size="9.96" font-family="Arial" font-weight="bold"><tspan y="-354.41" x="481.66"> </tspan></text>
</g>
<g clip-path="url(#clip_108)">
<text xml:space="preserve" transform="matrix(1 0 -0 1 0 841.92)" font-size="9.96" font-family="Arial" font-weight="bold"><tspan y="-354.41" x="484.42 491.61116 497.7266 501.57118 504.34007 507.19859 509.96748 515.5849 521.1227 526.6206">April 2023</tspan></text>
</g>
<g clip-path="url(#clip_109)">
<text xml:space="preserve" transform="matrix(1 0 -0 1 0 841.92)" font-size="9.96" font-family="Arial" font-weight="bold"><tspan y="-354.41" x="532.3"> </tspan></text>
</g>
<g clip-path="url(#clip_110)">
<text xml:space="preserve" transform="matrix(1 0 -0 1 0 841.92)" font-size="11.04" font-family="SymbolMT"><tspan y="-331.49" x="36">&#x2022;</tspan></text>
</g>
<g clip-path="url(#clip_111)">
<text xml:space="preserve" transform="matrix(1 0 -0 1 0 841.92)" font-size="11.04" font-family="ArialMT"><tspan y="-331.49" x="41.04"> </tspan></text>
</g>
<g clip-path="url(#clip_112)">
<text xml:space="preserve" transform="matrix(1 0 -0 1 0 841.92)" font-size="11.04" font-family="ArialMT"><tspan y="-331.49" x="54 61.91568 68.05392 77.25024 83.38847 85.7952 91.93343 95.002559 101.14079 107.27903 110.270877 113.384159 118.90415 125.04239 127.42703 133.56528 139.6704 142.78368 148.92192 155.02704 161.02176 164.13504 170.27329 176.25698 179.37026 185.5085 188.57762 194.71587 200.73267 203.84595 207.55539 212.95395 216.06723 219.18051 225.17523 230.69524 236.21524 241.73525 244.84853 252.7642 255.15988 258.27317 264.26789 267.38117 273.5194 275.90403 282.04228 288.1474 291.26069 297.2554 302.7754 308.29539 314.43363 318.10997 324.2482 329.7682 335.17778 338.29106 344.4293 350.53443 356.67268 359.7418 365.76963 368.8829 371.9962 374.39186 379.91184 382.3075 388.44575 394.55088 400.07087 405.46943">Completed typing and data entry tasks with high accuracy and efficiency.</tspan></text>
</g>
<g clip-path="url(#clip_113)">
<text xml:space="preserve" transform="matrix(1 0 -0 1 0 841.92)" font-size="11.04" font-family="ArialMT"><tspan y="-331.49" x="408.67"> </tspan></text>
</g>
<g clip-path="url(#clip_114)">
<text xml:space="preserve" transform="matrix(1 0 -0 1 0 841.92)" font-size="11.04" font-family="SymbolMT"><tspan y="-316.13" x="36">&#x2022;</tspan></text>
</g>
<g clip-path="url(#clip_115)">
<text xml:space="preserve" transform="matrix(1 0 -0 1 0 841.92)" font-size="11.04" font-family="ArialMT"><tspan y="-316.13" x="41.04"> </tspan></text>
</g>
<g clip-path="url(#clip_116)">
<text xml:space="preserve" transform="matrix(1 0 -0 1 0 841.92)" font-size="11.04" font-family="ArialMT"><tspan y="-316.13" x="54 63.22944 69.367679 75.47279 81.61103 87.71615 93.854389 99.9595 103.072788 109.21102 115.31614 120.836139 126.83086 136.0603 142.19855 148.18224 151.29552 156.81552 159.8184 162.93169 166.64113 172.63585 178.7741 184.87921 188.58866 191.70194 197.1005 200.21378 203.32706 209.4653 215.57042 221.56514 224.67842 228.38787 234.52611 240.04611 246.0298 249.73925 255.87749 261.25398 264.36726 267.48054 273.61878 279.7239 285.2439 291.23863 294.83769 297.23335 303.37159 309.4767 312.59 318.72825 322.40458 326.1361 332.13084">Managed documents, reports, and records, ensuring error</tspan></text>
</g>
<g clip-path="url(#clip_117)">
<text xml:space="preserve" transform="matrix(1 0 -0 1 0 841.92)" font-size="11.04" font-family="ArialMT"><tspan y="-316.13" x="336.07">-</tspan></text>
</g>
<g clip-path="url(#clip_118)">
<text xml:space="preserve" transform="matrix(1 0 -0 1 0 841.92)" font-size="11.04" font-family="ArialMT"><tspan y="-316.13" x="339.67 342.7833 346.49275 352.63099 358.61466 361.72795 364.84123 370.83595 374.54539 383.7748 389.76954 392.8828 395.9961 398.39176 404.53 410.51368">free formatting.</tspan></text>
</g>
<g clip-path="url(#clip_119)">
<text xml:space="preserve" transform="matrix(1 0 -0 1 0 841.92)" font-size="11.04" font-family="ArialMT"><tspan y="-316.13" x="413.59"> </tspan></text>
</g>
<g clip-path="url(#clip_120)">
<text xml:space="preserve" transform="matrix(1 0 -0 1 0 841.92)" font-size="11.04" font-family="SymbolMT"><tspan y="-300.77" x="36">&#x2022;</tspan></text>
</g>
<g clip-path="url(#clip_121)">
<text xml:space="preserve" transform="matrix(1 0 -0 1 0 841.92)" font-size="11.04" font-family="ArialMT"><tspan y="-300.77" x="41.04"> </tspan></text>
</g>
<g clip-path="url(#clip_122)">
<text xml:space="preserve" transform="matrix(1 0 -0 1 0 841.92)" font-size="11.04" font-family="ArialMT"><tspan y="-300.77" x="54 63.22944 69.367679 71.75232 77.89056 80.95968 87.097919 89.51568 95.653919 101.75903 107.89727 110.878078 113.991359 119.51135 125.64959 128.03423 134.17247 140.27759 143.39087 148.91088 155.04912 161.15424 167.29248 173.27617 176.27906 184.19474 186.59041 189.70369 195.84194 198.91106 204.43106 207.46706 211.1765 217.31475 223.41986 229.5581 232.62723 238.65508 241.76836 244.88164 251.01988 257.00355 260.11683 262.51249 268.65074 274.75587 277.75874 280.872 287.01026 290.07939 296.1072 302.24546 305.31459 311.45283 313.87059 316.26625">Maintained typing speed with strong attention to detail.</tspan></text>
</g>
<g clip-path="url(#clip_123)">
<text xml:space="preserve" transform="matrix(1 0 -0 1 0 841.92)" font-size="11.04" font-family="ArialMT"><tspan y="-300.77" x="319.51"> </tspan></text>
</g>
<g clip-path="url(#clip_124)">
<text xml:space="preserve" transform="matrix(1 0 -0 1 0 841.92)" font-size="12" font-family="Arial" font-weight="bold"><tspan y="-277.37" x="36 43.332 48 54.708 61.416 64.752 71.48399 78.68399 85.39199 92.1 95.34 103.368 110.7 114.648 118.644008 127.98 134.67601 139.34401 146.06401 149.40001 157.94402 161.28002 169.33202 176.04001 182.748 190.08 194.748 198.084 201.948 208.65599 211.99199 220.65599 227.98799 231.93599 239.26799 249.93599 256.644 260.64 263.976 271.308 278.64 281.976 289.98 297.312 304.644 307.98 315.312 322.032 328.74003">Freelance Software &#x0026; Security Automation Engineer</tspan></text>
</g>
<g clip-path="url(#clip_125)">
<text xml:space="preserve" transform="matrix(1 0 -0 1 0 841.92)" font-size="12" font-family="Arial" font-weight="bold"><tspan y="-277.37" x="333.55"> </tspan></text>
</g>
<g clip-path="url(#clip_126)">
<text xml:space="preserve" transform="matrix(1 0 -0 1 0 841.92)" font-size="9.96" font-family="Arial" font-weight="bold"><tspan y="-255.41" x="36 42.10548 45.95004 51.4878 56.98572 59.854204 65.39196 71.47752 77.01528 82.55304 85.32192 88.16052 90.929409 93.69829 99.783847 105.90924 111.447 117.53256 123.07032 129.1758 135.28127 140.81903 146.90459">Freelance / Independent</tspan></text>
</g>
<g clip-path="url(#clip_127)">
<text xml:space="preserve" transform="matrix(1 0 -0 1 0 841.92)" font-size="9.96" font-family="Arial" font-weight="bold"><tspan y="-255.41" x="150.5"> </tspan></text>
</g>
<g clip-path="url(#clip_128)">
<text xml:space="preserve" transform="matrix(1 0 -0 1 0 841.92)" font-size="9.96" font-family="Arial" font-weight="bold"><tspan y="-255.41" x="180.02"> </tspan></text>
</g>
<g clip-path="url(#clip_129)">
<text xml:space="preserve" transform="matrix(1 0 -0 1 0 841.92)" font-size="9.96" font-family="Arial" font-weight="bold"><tspan y="-255.41" x="216.05"> </tspan></text>
</g>
<g clip-path="url(#clip_130)">
<text xml:space="preserve" transform="matrix(1 0 -0 1 0 841.92)" font-size="9.96" font-family="Arial" font-weight="bold"><tspan y="-255.41" x="252.05"> </tspan></text>
</g>
<g clip-path="url(#clip_131)">
<text xml:space="preserve" transform="matrix(1 0 -0 1 0 841.92)" font-size="9.96" font-family="Arial" font-weight="bold"><tspan y="-255.41" x="288.05"> </tspan></text>
</g>
<g clip-path="url(#clip_132)">
<text xml:space="preserve" transform="matrix(1 0 -0 1 0 841.92)" font-size="9.96" font-family="Arial" font-weight="bold"><tspan y="-255.41" x="324.07"> </tspan></text>
</g>
<g clip-path="url(#clip_133)">
<text xml:space="preserve" transform="matrix(1 0 -0 1 0 841.92)" font-size="9.96" font-family="Arial" font-weight="bold"><tspan y="-255.41" x="360.07 362.83003 365.59004 368.35005 371.11006 373.87007 376.63008 379.39009 382.1501 385.01966 387.77967 390.53968 393.29969 396.0597 398.8197 401.5797">                </tspan></text>
</g>
<g clip-path="url(#clip_134)">
<text xml:space="preserve" transform="matrix(1 0 -0 1 0 841.92)" font-size="9.96" font-family="Arial" font-weight="bold"><tspan y="-255.41" x="404.47 412.7667 418.38414">May</tspan></text>
</g>
<g clip-path="url(#clip_135)">
<text xml:space="preserve" transform="matrix(1 0 -0 1 0 841.92)" font-size="9.96" font-family="Arial" font-weight="bold"><tspan y="-255.41" x="423.91"> </tspan></text>
</g>
<g clip-path="url(#clip_136)">
<text xml:space="preserve" transform="matrix(1 0 -0 1 0 841.92)" font-size="9.96" font-family="Arial" font-weight="bold"><tspan y="-255.41" x="426.67 432.18998">20</tspan></text>
</g>
<g clip-path="url(#clip_137)">
<text xml:space="preserve" transform="matrix(1 0 -0 1 0 841.92)" font-size="9.96" font-family="Arial" font-weight="bold"><tspan y="-255.41" x="437.86 443.37995">20</tspan></text>
</g>
<g clip-path="url(#clip_138)">
<text xml:space="preserve" transform="matrix(1 0 -0 1 0 841.92)" font-size="9.96" font-family="Arial" font-weight="bold"><tspan y="-255.41" x="448.9"> </tspan></text>
</g>
<g clip-path="url(#clip_139)">
<text xml:space="preserve" transform="matrix(1 0 -0 1 0 841.92)" font-size="9.96" font-family="Arial" font-weight="bold"><tspan y="-255.41" x="451.78">&#x2013;</tspan></text>
</g>
<g clip-path="url(#clip_140)">
<text xml:space="preserve" transform="matrix(1 0 -0 1 0 841.92)" font-size="9.96" font-family="Arial" font-weight="bold"><tspan y="-255.41" x="457.3"> </tspan></text>
</g>
<g clip-path="url(#clip_141)">
<text xml:space="preserve" transform="matrix(1 0 -0 1 0 841.92)" font-size="9.96" font-family="Arial" font-weight="bold"><tspan y="-255.41" x="460.06 467.25114 472.8885 478.51588 484.05363 492.90806 499.0235 504.56126 508.3859 511.2544 516.7922 522.2901 527.91757">December 2023</tspan></text>
</g>
<g clip-path="url(#clip_142)">
<text xml:space="preserve" transform="matrix(1 0 -0 1 0 841.92)" font-size="9.96" font-family="Arial" font-weight="bold"><tspan y="-255.41" x="533.62"> </tspan></text>
</g>
<g clip-path="url(#clip_143)">
<text xml:space="preserve" transform="matrix(1 0 -0 1 0 841.92)" font-size="11.04" font-family="SymbolMT"><tspan y="-232.49" x="36">&#x2022;</tspan></text>
</g>
<g clip-path="url(#clip_144)">
<text xml:space="preserve" transform="matrix(1 0 -0 1 0 841.92)" font-size="11.04" font-family="ArialMT"><tspan y="-232.49" x="41.04"> </tspan></text>
</g>
<g clip-path="url(#clip_145)">
<text xml:space="preserve" transform="matrix(1 0 -0 1 0 841.92)" font-size="11.04" font-family="ArialMT"><tspan y="-232.49" x="54 61.91568 68.05392 73.57391 75.95856 82.096797 88.20191 94.34015 100.44527 103.668949 109.80718 115.9123 122.05054 125.263179 131.40142 137.50653 143.02654 149.16478 151.54943 157.68767 163.79279 169.93103 175.91472 179.1384 184.6584 190.79665 196.17313 199.2864 205.42465 214.5216 217.74529 223.88353 229.98865 233.10193 239.09665 248.3261 254.32082 257.43409 259.82975 265.968 272.07313 275.2968 280.8168 286.21537 289.9248 292.32048 298.4587 301.52784 307.04783 310.30464 312.7003 318.695 321.9187 329.23823 334.7582 337.8715 344.00975 350.11488 356.1096 359.33329 365.47154 371.57667 377.57139 380.79508 388.71076 394.849 397.91813 401.0645 407.20277 410.4154 415.81398 418.81684 422.52629 428.66453 434.76966 443.99909 446.39476 448.7904 454.92866 461.03379 464.25749 469.77748 475.9157 481.4357 487.41938 491.1288 493.52449 496.63777 502.03633 505.26 508.3733 514.36807 519.88809 523.00137 525.39706 531.5353 537.6404 540.75369 546.8919 552.997 558.99179">Designed and developed custom automation scripts in Python and C# to streamline security testing and </tspan></text>
</g>
<g clip-path="url(#clip_146)">
<text xml:space="preserve" transform="matrix(1 0 -0 1 0 841.92)" font-size="11.04" font-family="ArialMT"><tspan y="-217.94" x="54 60.13824 66.24336 69.35664 75.49488 78.564 84.59184 88.301288 94.43952 99.95952 106.06464 111.58463 117.10463 119.50031 125.63855 131.74367 134.85695 142.77263 148.76735 152.47679 157.9968 161.11008 163.50576 169.50048 177.41616 182.93616 186.04944 189.16272 192.76175 198.9 205.00511 211.14336 216.66336 219.048 225.18625 231.29137 234.29425 243.5237 249.66194 255.76706 261.9053 268.01045 270.4061 273.51939 276.63267 282.7709 288.14738 293.66737 296.78065 299.89393 302.28959 311.40864 317.54689 320.616 326.75425 332.16383 335.2771 341.41535 347.52049 350.52336 353.63664 359.77488 362.844 368.98225 374.99906 384.81364">data processing workflows, reducing manual task time by up to 70%.</tspan></text>
</g>
<g clip-path="url(#clip_147)">
<text xml:space="preserve" transform="matrix(1 0 -0 1 0 841.92)" font-size="11.04" font-family="ArialMT"><tspan y="-217.94" x="388.03"> </tspan></text>
</g>
<g clip-path="url(#clip_148)">
<text xml:space="preserve" transform="matrix(1 0 -0 1 0 841.92)" font-size="11.04" font-family="SymbolMT"><tspan y="-202.58" x="36">&#x2022;</tspan></text>
</g>
<g clip-path="url(#clip_149)">
<text xml:space="preserve" transform="matrix(1 0 -0 1 0 841.92)" font-size="11.04" font-family="ArialMT"><tspan y="-202.58" x="41.04"> </tspan></text>
</g>
<g clip-path="url(#clip_150)">
<text xml:space="preserve" transform="matrix(1 0 -0 1 0 841.92)" font-size="11.04" font-family="ArialMT"><tspan y="-202.58" x="54 61.319524 67.45776 71.13409 74.26945 80.407688 83.98465 93.21409 99.352329 105.336009 108.80257 114.32256 120.4608 129.65712 135.68497 139.39441 145.53266 151.63777 157.77602 163.88114 169.40114 171.68642 177.20642 183.34467 186.80019 192.32019 198.45844 203.97844 209.96213 213.67157 216.06725 219.18053 224.70053 228.04566 231.15894 237.29718 242.67366 245.78694 248.18262 254.32086 260.426 263.89256 270.0308 276.01448 279.48103 287.3967 293.53495 299.64009 303.10664 309.24488 315.35 321.48826 323.87287 326.26853 331.7885 337.92677 340.99589 343.44676 349.55189 355.69013 361.2101 364.19093 367.65748 373.79573 379.90086 386.0391 388.4237 393.9437 399.46369 401.85935 407.9976 414.10273 417.56929 423.70753 429.81266 435.33265 437.7283 443.86656 449.97169 456.10993 461.6299 464.61073 468.07728 474.2155 480.32066 486.4589 492.56404 498.70228 502.3786 507.79924 510.8021 514.2687 520.4069 526.512 532.65029 535.9843 543.30386 550.62338 553.73666 559.1352">Performed comprehensive security testing on web applications, analyzing payloads, headers, and APIs </tspan></text>
</g>
<g clip-path="url(#clip_151)">
<text xml:space="preserve" transform="matrix(1 0 -0 1 0 841.92)" font-size="11.04" font-family="ArialMT"><tspan y="-188.06" x="54 57.113279 63.25152 66.32064 68.77152 74.87664 81.01488 87.119998 90.23328 92.62896 95.63184 101.15184 104.26512 110.40336 116.50848 122.5032 125.61648 131.75472 137.85984 143.37984 149.37456 158.604 164.74225 170.84737 173.85025 176.96353 182.48354 186.19298 188.58866 191.70194 194.09761 199.61762 205.75586 208.1405 211.25379 216.77379 222.91204 225.29668 231.43492 237.41861 241.12805 247.2663 253.37142 255.76709 258.16276 260.5584 263.6717 266.06736 272.2056 277.7256">to identify and document critical vulnerabilities.</tspan></text>
</g>
<g clip-path="url(#clip_152)">
<text xml:space="preserve" transform="matrix(1 0 -0 1 0 841.92)" font-size="11.04" font-family="ArialMT"><tspan y="-188.06" x="280.97"> </tspan></text>
</g>
<g clip-path="url(#clip_153)">
<text xml:space="preserve" transform="matrix(1 0 -0 1 0 841.92)" font-size="11.04" font-family="SymbolMT"><tspan y="-172.82" x="36">&#x2022;</tspan></text>
</g>
<g clip-path="url(#clip_154)">
<text xml:space="preserve" transform="matrix(1 0 -0 1 0 841.92)" font-size="11.04" font-family="ArialMT"><tspan y="-172.82" x="41.04"> </tspan></text>
</g>
<g clip-path="url(#clip_155)">
<text xml:space="preserve" transform="matrix(1 0 -0 1 0 841.92)" font-size="11.04" font-family="ArialMT"><tspan y="-172.82" x="54 61.319524 67.45776 73.56288 75.958568 82.0968 88.20192 94.34016 98.01648 104.15472 110.29295 112.92048 122.14992 128.28816 130.6728 133.78609">Engineered multi</tspan></text>
</g>
<g clip-path="url(#clip_156)">
<text xml:space="preserve" transform="matrix(1 0 -0 1 0 841.92)" font-size="11.04" font-family="ArialMT"><tspan y="-172.82" x="136.22">-</tspan></text>
</g>
<g clip-path="url(#clip_157)">
<text xml:space="preserve" transform="matrix(1 0 -0 1 0 841.92)" font-size="11.04" font-family="ArialMT"><tspan y="-172.82" x="139.82 142.93329 148.92801 152.63745 158.7757 164.88082 170.87554 177.01378 183.1189 185.75746 191.8957 198.00083 204.13907 206.52371 208.91939 214.43939 220.57764 223.64676 226.09764 232.20276 238.341 243.86101 246.4775 249.59078 255.5855 258.22404 264.36228 270.4674 273.5807 275.86598 285.0954 287.49107 292.88963 299.02787 301.64436 307.7826 313.88774 317.4868 320.60008 326.7383 330.31529 339.5447 345.68296 351.7881 357.30809 363.44633 366.0628 372.20106 378.30619 384.3009 386.93946 392.45945 394.8551 404.08454 410.22279 412.48597 418.6242 421.69334 427.83158 430.48118 436.61943 439.00404 445.14228">threaded applications to optimize performance and simulate high</tspan></text>
</g>
<g clip-path="url(#clip_158)">
<text xml:space="preserve" transform="matrix(1 0 -0 1 0 841.92)" font-size="11.04" font-family="ArialMT"><tspan y="-172.82" x="451.42">-</tspan></text>
</g>
<g clip-path="url(#clip_159)">
<text xml:space="preserve" transform="matrix(1 0 -0 1 0 841.92)" font-size="11.04" font-family="ArialMT"><tspan y="-172.82" x="455.14 460.66 466.79826 469.18287 475.17759 484.407 490.54527 493.16175 499.3 504.81999 510.80366 514.5131 517.0302 520.1435 523.85299 529.8477 532.8506 535.96389 538.35958 543.8796 546.5181 549.6314 555.62619 559.33566">volume user traffic for </tspan></text>
</g>
<g clip-path="url(#clip_160)">
<text xml:space="preserve" transform="matrix(1 0 -0 1 0 841.92)" font-size="11.04" font-family="ArialMT"><tspan y="-158.18" x="54 57.70944 63.84768 69.9528 76.091037 81.61103 84.591838 87.70512 90.8184 96.956638 102.333118 105.446399 107.84208 113.980319 120.085437 123.198719 128.71872 134.11728 140.25553 146.36064 152.49889 156.1752 158.62609 164.72017 170.24018">robust testing scenarios.</tspan></text>
</g>
<g clip-path="url(#clip_161)">
<text xml:space="preserve" transform="matrix(1 0 -0 1 0 841.92)" font-size="11.04" font-family="ArialMT"><tspan y="-158.18" x="173.3"> </tspan></text>
</g>
<g clip-path="url(#clip_162)">
<text xml:space="preserve" transform="matrix(1 0 -0 1 0 841.92)" font-size="11.04" font-family="SymbolMT"><tspan y="-142.94" x="36">&#x2022;</tspan></text>
</g>
<g clip-path="url(#clip_163)">
<text xml:space="preserve" transform="matrix(1 0 -0 1 0 841.92)" font-size="11.04" font-family="ArialMT"><tspan y="-142.94" x="41.04"> </tspan></text>
</g>
<g clip-path="url(#clip_164)">
<text xml:space="preserve" transform="matrix(1 0 -0 1 0 841.92)" font-size="11.04" font-family="ArialMT"><tspan y="-142.94" x="54 61.319524 67.45776 69.84241 72.23809 75.35137 78.354259 84.49249 90.59761 96.73585 99.71665 102.112339 108.25057 111.319698 117.45793 123.59617 127.30561 133.44385 136.51297 142.65122 148.78946 151.6709 154.78418 160.92243 167.02754 169.42322 174.82178 177.82466 180.93795 187.07619 190.05699 192.45267 198.59091 201.66004 207.79828 211.51876 217.51348 223.03348 226.14676 229.14965 237.06533 239.461 242.57428 248.71253 251.69333 257.21333 263.20805 266.91749 269.31315 275.4514 281.55653 287.0765 290.07939 297.27748 304.597 307.71028 313.23027 316.34355 319.22499 328.4544 334.59266 340.69779 346.83604 352.94117 359.0794 362.0602 368.19847 371.8748 377.90263 383.4226 388.9426 391.94548 398.0837 404.18885 407.30213 415.10743 421.24568 424.922 430.442 435.96199 439.09736 442.10023 448.23847 454.3436 460.33833 463.3412 469.47944 475.58457 479.294 484.814 490.95225 493.93305 499.45304 505.44776 514.67727 520.8155 523.20016 529.3384 534.8584 537.7177 543.85598 549.96109 553.07437 559.2126">Built and integrated tools to interact with various APIs, manage proxy networks, and parse complex data </tspan></text>
</g>
<g clip-path="url(#clip_165)">
<text xml:space="preserve" transform="matrix(1 0 -0 1 0 841.92)" font-size="11.04" font-family="ArialMT"><tspan y="-128.42" x="54 59.52 62.633279 66.34272 72.48096 77.85744 80.97072 87.108959 90.78528 96.81312 102.333118 105.446399 107.84208 110.23776 115.75776 121.895999 124.96512 132.3288 136.00511 142.03296 145.14624 151.28449 156.80449 162.9096 165.30529 168.41857 175.61664 181.75489 184.824 187.97042 193.96514 197.67458 203.19458">structures like Protocol Buffers.</tspan></text>
</g>
<g clip-path="url(#clip_166)">
<text xml:space="preserve" transform="matrix(1 0 -0 1 0 841.92)" font-size="11.04" font-family="ArialMT"><tspan y="-128.42" x="206.33"> </tspan></text>
</g>
<g clip-path="url(#clip_167)">
<text xml:space="preserve" transform="matrix(1 0 -0 1 0 841.92)" font-size="11.04" font-family="ArialMT"><tspan y="-113.9" x="36"> </tspan></text>
</g>
<g clip-path="url(#clip_168)">
<text xml:space="preserve" transform="matrix(1 0 -0 1 0 841.92)" font-size="15.96" font-family="Arial" font-weight="bold"><tspan y="-94.584" x="36">E</tspan></text>
</g>
<g clip-path="url(#clip_169)">
<text xml:space="preserve" transform="matrix(1 0 -0 1 0 841.92)" font-size="15.96" font-family="Arial" font-weight="bold"><tspan y="-94.584" x="46.68 58.20312 69.72624 81.24936 92.77248 102.587879 107.02476 119.48952">DUCATION</tspan></text>
</g>
<g clip-path="url(#clip_170)">
<text xml:space="preserve" transform="matrix(1 0 -0 1 0 841.92)" font-size="15.96" font-family="Arial" font-weight="bold"><tspan y="-94.584" x="131.18"> </tspan></text>
</g>
<g clip-path="url(#clip_171)">
<path transform="matrix(1,0,0,-1,0,841.92)" d="M34.56 87.024H560.86V87.50398H34.56Z" fill-rule="evenodd"/>
</g>
<g clip-path="url(#clip_172)">
<text xml:space="preserve" transform="matrix(1 0 -0 1 0 841.92)" font-size="12" font-family="Arial" font-weight="bold"><tspan y="-67.704" x="36 44.664 51.336004 58.068006 65.4 72.09601 75.43201 82.76401 87.43201 90.80401 98.13601 102.084018">Bachelor of </tspan></text>
</g>
<g clip-path="url(#clip_173)">
<text xml:space="preserve" transform="matrix(1 0 -0 1 0 841.92)" font-size="12" font-family="Arial" font-weight="bold"><tspan y="-67.704" x="105.5 114.164 121.46 132.128 139.46 146.792 150.74 157.34 162.008 165.344 173.40799 180.11598 183.35599 190.06398 197.39598 204.09198">Computer Science</tspan></text>
</g>
<g clip-path="url(#clip_174)">
<text xml:space="preserve" transform="matrix(1 0 -0 1 0 841.92)" font-size="12" font-family="Arial" font-weight="bold"><tspan y="-67.704" x="210.77"> </tspan></text>
</g>
<g clip-path="url(#clip_175)">
<text xml:space="preserve" transform="matrix(1 0 -0 1 0 841.92)" font-size="9.96" font-family="Arial" font-weight="bold"><tspan y="-53.784" x="36 43.2">Al</tspan></text>
</g>
<g clip-path="url(#clip_176)">
<text xml:space="preserve" transform="matrix(1 0 -0 1 0 841.92)" font-size="9.96" font-family="Arial" font-weight="bold"><tspan y="-53.784" x="45.96">-</tspan></text>
</g>
<g clip-path="url(#clip_177)">
<text xml:space="preserve" transform="matrix(1 0 -0 1 0 841.92)" font-size="9.96" font-family="Arial" font-weight="bold"><tspan y="-53.784" x="49.32 56.51112 62.04888 64.817768 70.90332 76.44108 79.20996 86.401088 92.50657 98.61205 101.48054 104.24942 109.78718 115.87274 118.641628 125.83275 131.94818 134.81665 140.35442 145.85234 149.80646 155.34423 158.19278 161.53934 167.0771 169.84598 172.57501 178.11278 184.19834 188.07277 194.15833 199.69609">Balqa Applied University, Jordan</tspan></text>
</g>
<g clip-path="url(#clip_178)">
<text xml:space="preserve" transform="matrix(1 0 -0 1 0 841.92)" font-size="9.96" font-family="Arial" font-weight="bold"><tspan y="-53.784" x="206.09"> </tspan></text>
</g>
<g clip-path="url(#clip_179)">
<text xml:space="preserve" transform="matrix(1 0 -0 1 0 841.92)" font-size="9.96" font-family="Arial" font-weight="bold"><tspan y="-53.784" x="216.05"> </tspan></text>
</g>
<g clip-path="url(#clip_180)">
<text xml:space="preserve" transform="matrix(1 0 -0 1 0 841.92)" font-size="9.96" font-family="Arial" font-weight="bold"><tspan y="-53.784" x="252.05"> </tspan></text>
</g>
<g clip-path="url(#clip_181)">
<text xml:space="preserve" transform="matrix(1 0 -0 1 0 841.92)" font-size="9.96" font-family="Arial" font-weight="bold"><tspan y="-53.784" x="288.05"> </tspan></text>
</g>
<g clip-path="url(#clip_182)">
<text xml:space="preserve" transform="matrix(1 0 -0 1 0 841.92)" font-size="9.96" font-family="Arial" font-weight="bold"><tspan y="-53.784" x="324.07"> </tspan></text>
</g>
<g clip-path="url(#clip_183)">
<text xml:space="preserve" transform="matrix(1 0 -0 1 0 841.92)" font-size="9.96" font-family="Arial" font-weight="bold"><tspan y="-53.784" x="360.07"> </tspan></text>
</g>
<g clip-path="url(#clip_184)">
<text xml:space="preserve" transform="matrix(1 0 -0 1 0 841.92)" font-size="9.96" font-family="Arial" font-weight="bold"><tspan y="-53.784" x="396.07"> </tspan></text>
</g>
<g clip-path="url(#clip_185)">
<text xml:space="preserve" transform="matrix(1 0 -0 1 0 841.92)" font-size="9.96" font-family="Arial" font-weight="bold"><tspan y="-53.784" x="432.07 434.83003 437.59004 440.35005 443.11006">     </tspan></text>
</g>
<g clip-path="url(#clip_186)">
<text xml:space="preserve" transform="matrix(1 0 -0 1 0 841.92)" font-size="9.96" font-family="Arial" font-weight="bold"><tspan y="-53.784" x="446.02"> </tspan></text>
</g>
<g clip-path="url(#clip_187)">
<text xml:space="preserve" transform="matrix(1 0 -0 1 0 841.92)" font-size="9.96" font-family="Arial" font-weight="bold"><tspan y="-53.784" x="468.1 470.86003 473.62004 476.38005">    </tspan></text>
</g>
<g clip-path="url(#clip_188)">
<text xml:space="preserve" transform="matrix(1 0 -0 1 0 841.92)" font-size="9.96" font-family="Arial" font-weight="bold"><tspan y="-53.784" x="479.14 486.9287 490.7733 496.31105 502.3966 508.522 514.05978 517.3764 522.9142 529.02969 532.3762">Graduated: </tspan></text>
</g>
<g clip-path="url(#clip_189)">
<text xml:space="preserve" transform="matrix(1 0 -0 1 0 841.92)" font-size="9.96" font-family="Arial" font-weight="bold"><tspan y="-53.784" x="535.3 540.83779 546.3357 551.96316">2025</tspan></text>
</g>
<g clip-path="url(#clip_190)">
<text xml:space="preserve" transform="matrix(1 0 -0 1 0 841.92)" font-size="9.96" font-family="Arial" font-weight="bold"><tspan y="-53.784" x="557.62"> </tspan></text>
</g>
<g clip-path="url(#clip_191)">
<text xml:space="preserve" transform="matrix(1 0 -0 1 0 841.92)" font-size="11.04" font-family="Calibri"><tspan y="-39.36" x="36"> </tspan></text>
</g>
</g>
</svg>
