<svg xmlns="http://www.w3.org/2000/svg" xmlns:xlink="http://www.w3.org/1999/xlink" xmlns:inkscape="http://www.inkscape.org/namespaces/inkscape" version="1.1" width="595.32" height="841.92" viewBox="0 0 595.32 841.92">
<defs>
<clipPath id="clip_192">
<path transform="matrix(1,0,0,-1,0,841.92)" d="M.000008871 0H595.32V841.92H.000008871Z" clip-rule="evenodd"/>
</clipPath>
<clipPath id="clip_193">
<path transform="matrix(1,0,0,-1,0,841.92)" d="M.000008871 0H595.32V841.92H.000008871Z" clip-rule="evenodd"/>
</clipPath>
<clipPath id="clip_194">
<path transform="matrix(1,0,0,-1,0,841.92)" d="M.000008871 0H595.32V841.92H.000008871Z" clip-rule="evenodd"/>
</clipPath>
<clipPath id="clip_195">
<path transform="matrix(1,0,0,-1,0,841.92)" d="M.000008871 0H595.32V841.92H.000008871Z" clip-rule="evenodd"/>
</clipPath>
<clipPath id="clip_196">
<path transform="matrix(1,0,0,-1,0,841.92)" d="M.000008871 0H595.32V841.92H.000008871Z" clip-rule="evenodd"/>
</clipPath>
<clipPath id="clip_197">
<path transform="matrix(1,0,0,-1,0,841.92)" d="M.000008871 0H595.32V841.92H.000008871Z" clip-rule="evenodd"/>
</clipPath>
<clipPath id="clip_198">
<path transform="matrix(1,0,0,-1,0,841.92)" d="M.000008871 0H595.32V841.92H.000008871Z" clip-rule="evenodd"/>
</clipPath>
<clipPath id="clip_199">
<path transform="matrix(1,0,0,-1,0,841.92)" d="M.000008871 0H595.32V841.92H.000008871Z" clip-rule="evenodd"/>
</clipPath>
<clipPath id="clip_200">
<path transform="matrix(1,0,0,-1,0,841.92)" d="M.000008871 0H595.32V841.92H.000008871Z" clip-rule="evenodd"/>
</clipPath>
<clipPath id="clip_201">
<path transform="matrix(1,0,0,-1,0,841.92)" d="M.000008871 0H595.32V841.92H.000008871Z" clip-rule="evenodd"/>
</clipPath>
<clipPath id="clip_202">
<path transform="matrix(1,0,0,-1,0,841.92)" d="M.000008871 0H595.32V841.92H.000008871Z" clip-rule="evenodd"/>
</clipPath>
<clipPath id="clip_203">
<path transform="matrix(1,0,0,-1,0,841.92)" d="M.000008871 0H595.32V841.92H.000008871Z" clip-rule="evenodd"/>
</clipPath>
<clipPath id="clip_204">
<path transform="matrix(1,0,0,-1,0,841.92)" d="M.000008871 0H595.32V841.92H.000008871Z" clip-rule="evenodd"/>
</clipPath>
<clipPath id="clip_205">
<path transform="matrix(1,0,0,-1,0,841.92)" d="M.000008871 0H595.32V841.92H.000008871Z" clip-rule="evenodd"/>
</clipPath>
<clipPath id="clip_206">
<path transform="matrix(1,0,0,-1,0,841.92)" d="M.000008871 0H595.32V841.92H.000008871Z" clip-rule="evenodd"/>
</clipPath>
<clipPath id="clip_207">
<path transform="matrix(1,0,0,-1,0,841.92)" d="M.000008871 0H595.32V841.92H.000008871Z" clip-rule="evenodd"/>
</clipPath>
<clipPath id="clip_208">
<path transform="matrix(1,0,0,-1,0,841.92)" d="M.000008871 0H595.32V841.92H.000008871Z" clip-rule="evenodd"/>
</clipPath>
<clipPath id="clip_209">
<path transform="matrix(1,0,0,-1,0,841.92)" d="M.000008871 0H595.32V841.92H.000008871Z" clip-rule="evenodd"/>
</clipPath>
<clipPath id="clip_210">
<path transform="matrix(1,0,0,-1,0,841.92)" d="M.000008871 0H595.32V841.92H.000008871Z" clip-rule="evenodd"/>
</clipPath>
<clipPath id="clip_211">
<path transform="matrix(1,0,0,-1,0,841.92)" d="M.000008871 0H595.32V841.92H.000008871Z" clip-rule="evenodd"/>
</clipPath>
<clipPath id="clip_212">
<path transform="matrix(1,0,0,-1,0,841.92)" d="M.000008871 0H595.32V841.92H.000008871Z" clip-rule="evenodd"/>
</clipPath>
<clipPath id="clip_213">
<path transform="matrix(1,0,0,-1,0,841.92)" d="M.000008871 0H595.32V841.92H.000008871Z" clip-rule="evenodd"/>
</clipPath>
<clipPath id="clip_214">
<path transform="matrix(1,0,0,-1,0,841.92)" d="M.000008871 0H595.32V841.92H.000008871Z" clip-rule="evenodd"/>
</clipPath>
<clipPath id="clip_215">
<path transform="matrix(1,0,0,-1,0,841.92)" d="M.000008871 0H595.32V841.92H.000008871Z" clip-rule="evenodd"/>
</clipPath>
<clipPath id="clip_216">
<path transform="matrix(1,0,0,-1,0,841.92)" d="M.000008871 0H595.32V841.92H.000008871Z" clip-rule="evenodd"/>
</clipPath>
<clipPath id="clip_217">
<path transform="matrix(1,0,0,-1,0,841.92)" d="M.000008871 0H595.32V841.92H.000008871Z" clip-rule="evenodd"/>
</clipPath>
<clipPath id="clip_218">
<path transform="matrix(1,0,0,-1,0,841.92)" d="M.000008871 0H595.32V841.92H.000008871Z" clip-rule="evenodd"/>
</clipPath>
<clipPath id="clip_219">
<path transform="matrix(1,0,0,-1,0,841.92)" d="M.000008871 0H595.32V841.92H.000008871Z" clip-rule="evenodd"/>
</clipPath>
<clipPath id="clip_220">
<path transform="matrix(1,0,0,-1,0,841.92)" d="M.000008871 0H595.32V841.92H.000008871Z" clip-rule="evenodd"/>
</clipPath>
<clipPath id="clip_221">
<path transform="matrix(1,0,0,-1,0,841.92)" d="M.000008871 0H595.32V841.92H.000008871Z" clip-rule="evenodd"/>
</clipPath>
<clipPath id="clip_222">
<path transform="matrix(1,0,0,-1,0,841.92)" d="M.000008871 0H595.32V841.92H.000008871Z" clip-rule="evenodd"/>
</clipPath>
<clipPath id="clip_223">
<path transform="matrix(1,0,0,-1,0,841.92)" d="M.000008871 0H595.32V841.92H.000008871Z" clip-rule="evenodd"/>
</clipPath>
<clipPath id="clip_224">
<path transform="matrix(1,0,0,-1,0,841.92)" d="M.000008871 0H595.32V841.92H.000008871Z" clip-rule="evenodd"/>
</clipPath>
<clipPath id="clip_225">
<path transform="matrix(1,0,0,-1,0,841.92)" d="M.000008871 0H595.32V841.92H.000008871Z" clip-rule="evenodd"/>
</clipPath>
<clipPath id="clip_226">
<path transform="matrix(1,0,0,-1,0,841.92)" d="M.000008871 0H595.32V841.92H.000008871Z" clip-rule="evenodd"/>
</clipPath>
<clipPath id="clip_227">
<path transform="matrix(1,0,0,-1,0,841.92)" d="M.000008871 0H595.32V841.92H.000008871Z" clip-rule="evenodd"/>
</clipPath>
<clipPath id="clip_228">
<path transform="matrix(1,0,0,-1,0,841.92)" d="M.000008871 0H595.32V841.92H.000008871Z" clip-rule="evenodd"/>
</clipPath>
<clipPath id="clip_229">
<path transform="matrix(1,0,0,-1,0,841.92)" d="M.000008871 0H595.32V841.92H.000008871Z" clip-rule="evenodd"/>
</clipPath>
<clipPath id="clip_230">
<path transform="matrix(1,0,0,-1,0,841.92)" d="M.000008871 0H595.32V841.92H.000008871Z" clip-rule="evenodd"/>
</clipPath>
<clipPath id="clip_231">
<path transform="matrix(1,0,0,-1,0,841.92)" d="M.000008871 0H595.32V841.92H.000008871Z" clip-rule="evenodd"/>
</clipPath>
<clipPath id="clip_232">
<path transform="matrix(1,0,0,-1,0,841.92)" d="M.000008871 0H595.32V841.92H.000008871Z" clip-rule="evenodd"/>
</clipPath>
<clipPath id="clip_233">
<path transform="matrix(1,0,0,-1,0,841.92)" d="M.000008871 0H595.32V841.92H.000008871Z" clip-rule="evenodd"/>
</clipPath>
<clipPath id="clip_234">
<path transform="matrix(1,0,0,-1,0,841.92)" d="M.000008871 0H595.32V841.92H.000008871Z" clip-rule="evenodd"/>
</clipPath>
<clipPath id="clip_235">
<path transform="matrix(1,0,0,-1,0,841.92)" d="M.000008871 0H595.32V841.92H.000008871Z" clip-rule="evenodd"/>
</clipPath>
<clipPath id="clip_236">
<path transform="matrix(1,0,0,-1,0,841.92)" d="M.000008871 0H595.32V841.92H.000008871Z" clip-rule="evenodd"/>
</clipPath>
<clipPath id="clip_237">
<path transform="matrix(1,0,0,-1,0,841.92)" d="M.000008871 0H595.32V841.92H.000008871Z" clip-rule="evenodd"/>
</clipPath>
<clipPath id="clip_238">
<path transform="matrix(1,0,0,-1,0,841.92)" d="M.000008871 0H595.32V841.92H.000008871Z" clip-rule="evenodd"/>
</clipPath>
<clipPath id="clip_239">
<path transform="matrix(1,0,0,-1,0,841.92)" d="M.000008871 0H595.32V841.92H.000008871Z" clip-rule="evenodd"/>
</clipPath>
<clipPath id="clip_240">
<path transform="matrix(1,0,0,-1,0,841.92)" d="M.000008871 0H595.32V841.92H.000008871Z" clip-rule="evenodd"/>
</clipPath>
<clipPath id="clip_241">
<path transform="matrix(1,0,0,-1,0,841.92)" d="M.000008871 0H595.32V841.92H.000008871Z" clip-rule="evenodd"/>
</clipPath>
<clipPath id="clip_242">
<path transform="matrix(1,0,0,-1,0,841.92)" d="M.000008871 0H595.32V841.92H.000008871Z" clip-rule="evenodd"/>
</clipPath>
<clipPath id="clip_243">
<path transform="matrix(1,0,0,-1,0,841.92)" d="M.000008871 0H595.32V841.92H.000008871Z" clip-rule="evenodd"/>
</clipPath>
<clipPath id="clip_244">
<path transform="matrix(1,0,0,-1,0,841.92)" d="M.000008871 0H595.32V841.92H.000008871Z" clip-rule="evenodd"/>
</clipPath>
<clipPath id="clip_245">
<path transform="matrix(1,0,0,-1,0,841.92)" d="M.000008871 0H595.32V841.92H.000008871Z" clip-rule="evenodd"/>
</clipPath>
<clipPath id="clip_246">
<path transform="matrix(1,0,0,-1,0,841.92)" d="M.000008871 0H595.32V841.92H.000008871Z" clip-rule="evenodd"/>
</clipPath>
<clipPath id="clip_247">
<path transform="matrix(1,0,0,-1,0,841.92)" d="M.000008871 0H595.32V841.92H.000008871Z" clip-rule="evenodd"/>
</clipPath>
<clipPath id="clip_248">
<path transform="matrix(1,0,0,-1,0,841.92)" d="M.000008871 0H595.32V841.92H.000008871Z" clip-rule="evenodd"/>
</clipPath>
<clipPath id="clip_249">
<path transform="matrix(1,0,0,-1,0,841.92)" d="M.000008871 0H595.32V841.92H.000008871Z" clip-rule="evenodd"/>
</clipPath>
<clipPath id="clip_250">
<path transform="matrix(1,0,0,-1,0,841.92)" d="M.000008871 0H595.32V841.92H.000008871Z" clip-rule="evenodd"/>
</clipPath>
<clipPath id="clip_251">
<path transform="matrix(1,0,0,-1,0,841.92)" d="M.000008871 0H595.32V841.92H.000008871Z" clip-rule="evenodd"/>
</clipPath>
<clipPath id="clip_252">
<path transform="matrix(1,0,0,-1,0,841.92)" d="M.000008871 0H595.32V841.92H.000008871Z" clip-rule="evenodd"/>
</clipPath>
<clipPath id="clip_253">
<path transform="matrix(1,0,0,-1,0,841.92)" d="M.000008871 0H595.32V841.92H.000008871Z" clip-rule="evenodd"/>
</clipPath>
<clipPath id="clip_254">
<path transform="matrix(1,0,0,-1,0,841.92)" d="M.000008871 0H595.32V841.92H.000008871Z" clip-rule="evenodd"/>
</clipPath>
<clipPath id="clip_255">
<path transform="matrix(1,0,0,-1,0,841.92)" d="M.000008871 0H595.32V841.92H.000008871Z" clip-rule="evenodd"/>
</clipPath>
<clipPath id="clip_256">
<path transform="matrix(1,0,0,-1,0,841.92)" d="M.000008871 0H595.32V841.92H.000008871Z" clip-rule="evenodd"/>
</clipPath>
<clipPath id="clip_257">
<path transform="matrix(1,0,0,-1,0,841.92)" d="M.000008871 0H595.32V841.92H.000008871Z" clip-rule="evenodd"/>
</clipPath>
<clipPath id="clip_258">
<path transform="matrix(1,0,0,-1,0,841.92)" d="M.000008871 0H595.32V841.92H.000008871Z" clip-rule="evenodd"/>
</clipPath>
<clipPath id="clip_259">
<path transform="matrix(1,0,0,-1,0,841.92)" d="M.000008871 0H595.32V841.92H.000008871Z" clip-rule="evenodd"/>
</clipPath>
<clipPath id="clip_260">
<path transform="matrix(1,0,0,-1,0,841.92)" d="M.000008871 0H595.32V841.92H.000008871Z" clip-rule="evenodd"/>
</clipPath>
<clipPath id="clip_261">
<path transform="matrix(1,0,0,-1,0,841.92)" d="M.000008871 0H595.32V841.92H.000008871Z" clip-rule="evenodd"/>
</clipPath>
<clipPath id="clip_262">
<path transform="matrix(1,0,0,-1,0,841.92)" d="M.000008871 0H595.32V841.92H.000008871Z" clip-rule="evenodd"/>
</clipPath>
<clipPath id="clip_263">
<path transform="matrix(1,0,0,-1,0,841.92)" d="M.000008871 0H595.32V841.92H.000008871Z" clip-rule="evenodd"/>
</clipPath>
<clipPath id="clip_264">
<path transform="matrix(1,0,0,-1,0,841.92)" d="M.000008871 0H595.32V841.92H.000008871Z" clip-rule="evenodd"/>
</clipPath>
<clipPath id="clip_265">
<path transform="matrix(1,0,0,-1,0,841.92)" d="M.000008871 0H595.32V841.92H.000008871Z" clip-rule="evenodd"/>
</clipPath>
<clipPath id="clip_266">
<path transform="matrix(1,0,0,-1,0,841.92)" d="M.000008871 0H595.32V841.92H.000008871Z" clip-rule="evenodd"/>
</clipPath>
<clipPath id="clip_267">
<path transform="matrix(1,0,0,-1,0,841.92)" d="M.000008871 0H595.32V841.92H.000008871Z" clip-rule="evenodd"/>
</clipPath>
<clipPath id="clip_268">
<path transform="matrix(1,0,0,-1,0,841.92)" d="M.000008871 0H595.32V841.92H.000008871Z" clip-rule="evenodd"/>
</clipPath>
<clipPath id="clip_269">
<path transform="matrix(1,0,0,-1,0,841.92)" d="M.000008871 0H595.32V841.92H.000008871Z" clip-rule="evenodd"/>
</clipPath>
<clipPath id="clip_270">
<path transform="matrix(1,0,0,-1,0,841.92)" d="M.000008871 0H595.32V841.92H.000008871Z" clip-rule="evenodd"/>
</clipPath>
<clipPath id="clip_271">
<path transform="matrix(1,0,0,-1,0,841.92)" d="M.000008871 0H595.32V841.92H.000008871Z" clip-rule="evenodd"/>
</clipPath>
<clipPath id="clip_272">
<path transform="matrix(1,0,0,-1,0,841.92)" d="M.000008871 0H595.32V841.92H.000008871Z" clip-rule="evenodd"/>
</clipPath>
<clipPath id="clip_273">
<path transform="matrix(1,0,0,-1,0,841.92)" d="M.000008871 0H595.32V841.92H.000008871Z" clip-rule="evenodd"/>
</clipPath>
<clipPath id="clip_274">
<path transform="matrix(1,0,0,-1,0,841.92)" d="M.000008871 0H595.32V841.92H.000008871Z" clip-rule="evenodd"/>
</clipPath>
<clipPath id="clip_275">
<path transform="matrix(1,0,0,-1,0,841.92)" d="M.000008871 0H595.32V841.92H.000008871Z" clip-rule="evenodd"/>
</clipPath>
<clipPath id="clip_276">
<path transform="matrix(1,0,0,-1,0,841.92)" d="M.000008871 0H595.32V841.92H.000008871Z" clip-rule="evenodd"/>
</clipPath>
<clipPath id="clip_277">
<path transform="matrix(1,0,0,-1,0,841.92)" d="M.000008871 0H595.32V841.92H.000008871Z" clip-rule="evenodd"/>
</clipPath>
<clipPath id="clip_278">
<path transform="matrix(1,0,0,-1,0,841.92)" d="M.000008871 0H595.32V841.92H.000008871Z" clip-rule="evenodd"/>
</clipPath>
<clipPath id="clip_279">
<path transform="matrix(1,0,0,-1,0,841.92)" d="M.000008871 0H595.32V841.92H.000008871Z" clip-rule="evenodd"/>
</clipPath>
<clipPath id="clip_280">
<path transform="matrix(1,0,0,-1,0,841.92)" d="M.000008871 0H595.32V841.92H.000008871Z" clip-rule="evenodd"/>
</clipPath>
<clipPath id="clip_281">
<path transform="matrix(1,0,0,-1,0,841.92)" d="M.000008871 0H595.32V841.92H.000008871Z" clip-rule="evenodd"/>
</clipPath>
<clipPath id="clip_282">
<path transform="matrix(1,0,0,-1,0,841.92)" d="M.000008871 0H595.32V841.92H.000008871Z" clip-rule="evenodd"/>
</clipPath>
<clipPath id="clip_283">
<path transform="matrix(1,0,0,-1,0,841.92)" d="M.000008871 0H595.32V841.92H.000008871Z" clip-rule="evenodd"/>
</clipPath>
<clipPath id="clip_284">
<path transform="matrix(1,0,0,-1,0,841.92)" d="M.000008871 0H595.32V841.92H.000008871Z" clip-rule="evenodd"/>
</clipPath>
<clipPath id="clip_285">
<path transform="matrix(1,0,0,-1,0,841.92)" d="M.000008871 0H595.32V841.92H.000008871Z" clip-rule="evenodd"/>
</clipPath>
<clipPath id="clip_286">
<path transform="matrix(1,0,0,-1,0,841.92)" d="M.000008871 0H595.32V841.92H.000008871Z" clip-rule="evenodd"/>
</clipPath>
<clipPath id="clip_287">
<path transform="matrix(1,0,0,-1,0,841.92)" d="M.000008871 0H595.32V841.92H.000008871Z" clip-rule="evenodd"/>
</clipPath>
<clipPath id="clip_288">
<path transform="matrix(1,0,0,-1,0,841.92)" d="M.000008871 0H595.32V841.92H.000008871Z" clip-rule="evenodd"/>
</clipPath>
<clipPath id="clip_289">
<path transform="matrix(1,0,0,-1,0,841.92)" d="M.000008871 0H595.32V841.92H.000008871Z" clip-rule="evenodd"/>
</clipPath>
<clipPath id="clip_290">
<path transform="matrix(1,0,0,-1,0,841.92)" d="M.000008871 0H595.32V841.92H.000008871Z" clip-rule="evenodd"/>
</clipPath>
<clipPath id="clip_291">
<path transform="matrix(1,0,0,-1,0,841.92)" d="M.000008871 0H595.32V841.92H.000008871Z" clip-rule="evenodd"/>
</clipPath>
<clipPath id="clip_292">
<path transform="matrix(1,0,0,-1,0,841.92)" d="M.000008871 0H595.32V841.92H.000008871Z" clip-rule="evenodd"/>
</clipPath>
<clipPath id="clip_293">
<path transform="matrix(1,0,0,-1,0,841.92)" d="M.000008871 0H595.32V841.92H.000008871Z" clip-rule="evenodd"/>
</clipPath>
<clipPath id="clip_294">
<path transform="matrix(1,0,0,-1,0,841.92)" d="M.000008871 0H595.32V841.92H.000008871Z" clip-rule="evenodd"/>
</clipPath>
<clipPath id="clip_295">
<path transform="matrix(1,0,0,-1,0,841.92)" d="M.000008871 0H595.32V841.92H.000008871Z" clip-rule="evenodd"/>
</clipPath>
<clipPath id="clip_296">
<path transform="matrix(1,0,0,-1,0,841.92)" d="M.000008871 0H595.32V841.92H.000008871Z" clip-rule="evenodd"/>
</clipPath>
<clipPath id="clip_297">
<path transform="matrix(1,0,0,-1,0,841.92)" d="M.000008871 0H595.32V841.92H.000008871Z" clip-rule="evenodd"/>
</clipPath>
<clipPath id="clip_298">
<path transform="matrix(1,0,0,-1,0,841.92)" d="M.000008871 0H595.32V841.92H.000008871Z" clip-rule="evenodd"/>
</clipPath>
<clipPath id="clip_299">
<path transform="matrix(1,0,0,-1,0,841.92)" d="M.000008871 0H595.32V841.92H.000008871Z" clip-rule="evenodd"/>
</clipPath>
<clipPath id="clip_300">
<path transform="matrix(1,0,0,-1,0,841.92)" d="M.000008871 0H595.32V841.92H.000008871Z" clip-rule="evenodd"/>
</clipPath>
<clipPath id="clip_301">
<path transform="matrix(1,0,0,-1,0,841.92)" d="M.000008871 0H595.32V841.92H.000008871Z" clip-rule="evenodd"/>
</clipPath>
<clipPath id="clip_302">
<path transform="matrix(1,0,0,-1,0,841.92)" d="M.000008871 0H595.32V841.92H.000008871Z" clip-rule="evenodd"/>
</clipPath>
<clipPath id="clip_303">
<path transform="matrix(1,0,0,-1,0,841.92)" d="M.000008871 0H595.32V841.92H.000008871Z" clip-rule="evenodd"/>
</clipPath>
<clipPath id="clip_304">
<path transform="matrix(1,0,0,-1,0,841.92)" d="M.000008871 0H595.32V841.92H.000008871Z" clip-rule="evenodd"/>
</clipPath>
<clipPath id="clip_305">
<path transform="matrix(1,0,0,-1,0,841.92)" d="M.000008871 0H595.32V841.92H.000008871Z" clip-rule="evenodd"/>
</clipPath>
<clipPath id="clip_306">
<path transform="matrix(1,0,0,-1,0,841.92)" d="M.000008871 0H595.32V841.92H.000008871Z" clip-rule="evenodd"/>
</clipPath>
<clipPath id="clip_307">
<path transform="matrix(1,0,0,-1,0,841.92)" d="M.000008871 0H595.32V841.92H.000008871Z" clip-rule="evenodd"/>
</clipPath>
<clipPath id="clip_308">
<path transform="matrix(1,0,0,-1,0,841.92)" d="M.000008871 0H595.32V841.92H.000008871Z" clip-rule="evenodd"/>
</clipPath>
<clipPath id="clip_309">
<path transform="matrix(1,0,0,-1,0,841.92)" d="M.000008871 0H595.32V841.92H.000008871Z" clip-rule="evenodd"/>
</clipPath>
<clipPath id="clip_310">
<path transform="matrix(1,0,0,-1,0,841.92)" d="M.000008871 0H595.32V841.92H.000008871Z" clip-rule="evenodd"/>
</clipPath>
<clipPath id="clip_311">
<path transform="matrix(1,0,0,-1,0,841.92)" d="M.000008871 0H595.32V841.92H.000008871Z" clip-rule="evenodd"/>
</clipPath>
<clipPath id="clip_312">
<path transform="matrix(1,0,0,-1,0,841.92)" d="M.000008871 0H595.32V841.92H.000008871Z" clip-rule="evenodd"/>
</clipPath>
<clipPath id="clip_313">
<path transform="matrix(1,0,0,-1,0,841.92)" d="M.000008871 0H595.32V841.92H.000008871Z" clip-rule="evenodd"/>
</clipPath>
<clipPath id="clip_314">
<path transform="matrix(1,0,0,-1,0,841.92)" d="M.000008871 0H595.32V841.92H.000008871Z" clip-rule="evenodd"/>
</clipPath>
<clipPath id="clip_315">
<path transform="matrix(1,0,0,-1,0,841.92)" d="M.000008871 0H595.32V841.92H.000008871Z" clip-rule="evenodd"/>
</clipPath>
<clipPath id="clip_316">
<path transform="matrix(1,0,0,-1,0,841.92)" d="M.000008871 0H595.32V841.92H.000008871Z" clip-rule="evenodd"/>
</clipPath>
<clipPath id="clip_317">
<path transform="matrix(1,0,0,-1,0,841.92)" d="M.000008871 0H595.32V841.92H.000008871Z" clip-rule="evenodd"/>
</clipPath>
<clipPath id="clip_318">
<path transform="matrix(1,0,0,-1,0,841.92)" d="M.000008871 0H595.32V841.92H.000008871Z" clip-rule="evenodd"/>
</clipPath>
<clipPath id="clip_319">
<path transform="matrix(1,0,0,-1,0,841.92)" d="M.000008871 0H595.32V841.92H.000008871Z" clip-rule="evenodd"/>
</clipPath>
<clipPath id="clip_320">
<path transform="matrix(1,0,0,-1,0,841.92)" d="M.000008871 0H595.32V841.92H.000008871Z" clip-rule="evenodd"/>
</clipPath>
<clipPath id="clip_321">
<path transform="matrix(1,0,0,-1,0,841.92)" d="M.000008871 0H595.32V841.92H.000008871Z" clip-rule="evenodd"/>
</clipPath>
<clipPath id="clip_322">
<path transform="matrix(1,0,0,-1,0,841.92)" d="M.000008871 0H595.32V841.92H.000008871Z" clip-rule="evenodd"/>
</clipPath>
<clipPath id="clip_323">
<path transform="matrix(1,0,0,-1,0,841.92)" d="M.000008871 0H595.32V841.92H.000008871Z" clip-rule="evenodd"/>
</clipPath>
</defs>
<g>
<g clip-path="url(#clip_192)">
<text xml:space="preserve" transform="matrix(1 0 -0 1 0 841.92)" font-size="15.96" font-family="Arial" font-weight="bold"><tspan y="-790.8" x="36 46.64532 58.16844 62.605325 72.35689 82.108448">SKILLS</tspan></text>
</g>
<g clip-path="url(#clip_193)">
<text xml:space="preserve" transform="matrix(1 0 -0 1 0 841.92)" font-size="15.96" font-family="Arial" font-weight="bold"><tspan y="-790.8" x="92.904"> </tspan></text>
</g>
<g clip-path="url(#clip_194)">
<path transform="matrix(1,0,0,-1,0,841.92)" d="M34.56 783H560.86V783.72H34.56Z" fill-rule="evenodd"/>
</g>
<g clip-path="url(#clip_195)">
<text xml:space="preserve" transform="matrix(1 0 -0 1 0 841.92)" font-size="11.04" font-family="Arial" font-weight="bold"><tspan y="-764.64" x="36 42.72004 48.83288 55.552919 62.272958 68.993 75.105838 81.825878 87.93871 94.05155 97.19463 105.140117 108.228 116.17348 122.286319 125.98139 132.09424 138.81429 144.92713 151.03997 157.06449">Languages &#x0026; Databases</tspan></text>
</g>
<g clip-path="url(#clip_196)">
<text xml:space="preserve" transform="matrix(1 0 -0 1 0 841.92)" font-size="11.04" font-family="Arial" font-weight="bold"><tspan y="-764.64" x="163.22"> </tspan></text>
</g>
<g clip-path="url(#clip_197)">
<text xml:space="preserve" transform="matrix(1 0 -0 1 0 841.92)" font-size="11.04" font-family="ArialMT"><tspan y="-750.1" x="36"> </tspan></text>
</g>
<g clip-path="url(#clip_198)">
<text xml:space="preserve" transform="matrix(1 0 -0 1 0 841.92)" font-size="11.04" font-family="SymbolMT"><tspan y="-734.86" x="36">&#x2022;</tspan></text>
</g>
<g clip-path="url(#clip_199)">
<text xml:space="preserve" transform="matrix(1 0 -0 1 0 841.92)" font-size="11.04" font-family="ArialMT"><tspan y="-734.86" x="41.04"> </tspan></text>
</g>
<g clip-path="url(#clip_200)">
<text xml:space="preserve" transform="matrix(1 0 -0 1 0 841.92)" font-size="11.04" font-family="ArialMT"><tspan y="-734.86" x="54 61.319524 66.83952 69.952808 76.09104 82.19616 88.3344 91.3152 94.42848 101.748 107.88624 110.95536 116.9832 126.21264 132.35088 135.42 137.87088 143.976 150.11425 153.09505 156.20833 164.12401 170.26226 176.24594 179.35923 184.87923 190.39923 194.10868 200.24692 206.35204 208.74771 214.88596 220.86965 223.98293 227.0962 234.41573 241.73525 244.73813 247.85141 250.24709 256.3853 259.45445 265.48228 269.1917 275.32997 280.84996 283.91908 286.36994 292.47508 298.4698 301.58308 304.58595 313.2192 319.35746 325.4626 331.60084 338.89826 345.0365 347.4211 349.81678 355.95503 359.02415 362.17054 367.69053 373.08909 376.79853 379.19419 385.33244 388.40156 390.85243 396.95756 403.0958 406.0766 409.18989 415.1846 421.32286 427.42799 430.54127 436.6795 442.78465 445.89793 451.89265 455.00593 461.14418 467.2493 470.95875 476.47874 478.8744 485.01264 490.9963">Python: Automation, web scraping, API interaction, OpenBullet scripting, and data parsing.</tspan></text>
</g>
<g clip-path="url(#clip_201)">
<text xml:space="preserve" transform="matrix(1 0 -0 1 0 841.92)" font-size="11.04" font-family="ArialMT"><tspan y="-734.86" x="494.26"> </tspan></text>
</g>
<g clip-path="url(#clip_202)">
<text xml:space="preserve" transform="matrix(1 0 -0 1 0 841.92)" font-size="11.04" font-family="SymbolMT"><tspan y="-719.62" x="36">&#x2022;</tspan></text>
</g>
<g clip-path="url(#clip_203)">
<text xml:space="preserve" transform="matrix(1 0 -0 1 0 841.92)" font-size="11.04" font-family="ArialMT"><tspan y="-719.62" x="41.04"> </tspan></text>
</g>
<g clip-path="url(#clip_204)">
<text xml:space="preserve" transform="matrix(1 0 -0 1 0 841.92)" font-size="11.04" font-family="ArialMT"><tspan y="-719.62" x="54 61.91568 68.05392 71.12304 74.26944 81.58896 87.727199 90.79632 96.82416 106.0536 112.19183 115.260959 117.71184 123.816959 129.81168 132.92496 135.32064 141.45888 147.564 149.95967 155.47968 158.59296 166.50864 168.90431 171.9072 178.04544 181.11457 189.08545 195.19057 198.90001 201.29569 207.43393 209.81858 215.95682 219.02594 222.17235 227.5709 233.09091 236.80036 239.19603 245.33428 248.4034 250.85428 256.9594 263.09767 266.07847 269.19175 275.33 278.90696 282.02024 284.4159 290.4106 296.54887 298.93348 305.07173 308.14085 311.28724 313.6829 319.82115 327.72578 333.24577 336.35905 339.47233 345.61058 351.7157 357.71043 360.8237 366.96195 373.06709 378.58708 384.10707 390.2453 396.35044 402.34516 405.45845 408.4613 414.59956 420.11955 425.63954 431.15953">C#: Automation logic with RuriLib, scripting for login flows, and backend tasks.</tspan></text>
</g>
<g clip-path="url(#clip_205)">
<text xml:space="preserve" transform="matrix(1 0 -0 1 0 841.92)" font-size="11.04" font-family="ArialMT"><tspan y="-719.62" x="434.35"> </tspan></text>
</g>
<g clip-path="url(#clip_206)">
<text xml:space="preserve" transform="matrix(1 0 -0 1 0 841.92)" font-size="11.04" font-family="SymbolMT"><tspan y="-704.26" x="36">&#x2022;</tspan></text>
</g>
<g clip-path="url(#clip_207)">
<text xml:space="preserve" transform="matrix(1 0 -0 1 0 841.92)" font-size="11.04" font-family="ArialMT"><tspan y="-704.26" x="41.04"> </tspan></text>
</g>
<g clip-path="url(#clip_208)">
<text xml:space="preserve" transform="matrix(1 0 -0 1 0 841.92)" font-size="11.04" font-family="ArialMT"><tspan y="-704.26" x="54 61.91568 68.05392 74.159038 80.29727 83.366397 85.905597 91.30415 94.417438 97.530719 104.850238 110.844959 114.5544 120.074398 126.21263">Node.js: Server</tspan></text>
</g>
<g clip-path="url(#clip_209)">
<text xml:space="preserve" transform="matrix(1 0 -0 1 0 841.92)" font-size="11.04" font-family="ArialMT"><tspan y="-704.26" x="129.86">-</tspan></text>
</g>
<g clip-path="url(#clip_210)">
<text xml:space="preserve" transform="matrix(1 0 -0 1 0 841.92)" font-size="11.04" font-family="ArialMT"><tspan y="-704.26" x="133.58 139.1 141.49568 147.63393 153.73905 156.85233 162.37233 167.77089 171.48033 173.876 180.01425 183.08338 185.53426 191.63938 197.77762 200.84674 203.99315 210.1314 216.11508 225.34453 228.45781 234.59606 240.57975 246.09975 251.61975 257.758 263.86314 270.00138 275.37785 278.49113 281.6044 287.74266 293.72633 299.86457 302.9337 309.07194 315.21018 320.73017 323.12583 328.6458 331.7591 337.89735 344.00248 349.52247 355.04246 361.1807 367.28584 373.28056 376.39384 382.53208 388.6372 394.1572 400.29545 402.68006 408.8183 414.80198 424.0314 430.16966 436.27479 439.27766">side scripting, npm packages, and basic backend development.</tspan></text>
</g>
<g clip-path="url(#clip_211)">
<text xml:space="preserve" transform="matrix(1 0 -0 1 0 841.92)" font-size="11.04" font-family="ArialMT"><tspan y="-704.26" x="442.42"> </tspan></text>
</g>
<g clip-path="url(#clip_212)">
<text xml:space="preserve" transform="matrix(1 0 -0 1 0 841.92)" font-size="11.04" font-family="SymbolMT"><tspan y="-689.02" x="36">&#x2022;</tspan></text>
</g>
<g clip-path="url(#clip_213)">
<text xml:space="preserve" transform="matrix(1 0 -0 1 0 841.92)" font-size="11.04" font-family="ArialMT"><tspan y="-689.02" x="41.04"> </tspan></text>
</g>
<g clip-path="url(#clip_214)">
<text xml:space="preserve" transform="matrix(1 0 -0 1 0 841.92)" font-size="11.04" font-family="ArialMT"><tspan y="-689.02" x="54 61.319524 69.952808 76.09104 79.071849 82.18513 90.10081 96.239048 99.30817 103.05073 105.44641 111.58465 117.104648 119.48929 125.627529 131.73264 134.73552 137.8488 143.24736 146.36064 152.49889 156.1752 158.62609 164.72017 170.85842 173.83922 176.9525 183.09075 189.19586 195.3341 198.31491 207.54436 213.6826 219.78772 225.92597 232.03108 234.42676 240.565 246.67012 249.7834 255.18196 258.29524 262.00468 268.1429 273.51939 276.63267 282.7709 286.44725 292.47508 298.6133 301.68244 307.82069 313.95893 317.06117 323.05589 326.16917 329.28245 335.27717 338.9866 342.09989 348.23814 354.2218 357.33509 363.47334 369.57847 375.7167 381.2367 387.22038 390.33366 392.7293 398.86756 401.93669 408.07493 411.685 417.82325 423.34324 426.41236 428.86323 434.96836 441.1066">SQL: Retrieving, storing, and managing structured data for database interaction.</tspan></text>
</g>
<g clip-path="url(#clip_215)">
<text xml:space="preserve" transform="matrix(1 0 -0 1 0 841.92)" font-size="11.04" font-family="ArialMT"><tspan y="-689.02" x="444.34"> </tspan></text>
</g>
<g clip-path="url(#clip_216)">
<text xml:space="preserve" transform="matrix(1 0 -0 1 0 841.92)" font-size="11.04" font-family="ArialMT"><tspan y="-674.38" x="36"> </tspan></text>
</g>
<g clip-path="url(#clip_217)">
<text xml:space="preserve" transform="matrix(1 0 -0 1 0 841.92)" font-size="11.04" font-family="Arial" font-weight="bold"><tspan y="-659.86" x="36 42.833765 49.579206 56.159048 59.272325 65.41056 68.47968 76.45056 79.431369 86.26512 92.40336 98.50848 105.253917 111.94415 118.546077 121.659358 128.4048 134.98464 138.09792 144.23616">Tools &#x0026; Technologies</tspan></text>
</g>
<g clip-path="url(#clip_218)">
<text xml:space="preserve" transform="matrix(1 0 -0 1 0 841.92)" font-size="11.04" font-family="Arial" font-weight="bold"><tspan y="-659.86" x="150.26"> </tspan></text>
</g>
<g clip-path="url(#clip_219)">
<text xml:space="preserve" transform="matrix(1 0 -0 1 0 841.92)" font-size="11.04" font-family="Arial" font-weight="bold"><tspan y="-645.34" x="36"> </tspan></text>
</g>
<g clip-path="url(#clip_220)">
<text xml:space="preserve" transform="matrix(1 0 -0 1 0 841.92)" font-size="11.04" font-family="SymbolMT"><tspan y="-630.1" x="36">&#x2022;</tspan></text>
</g>
<g clip-path="url(#clip_221)">
<text xml:space="preserve" transform="matrix(1 0 -0 1 0 841.92)" font-size="11.04" font-family="ArialMT"><tspan y="-630.1" x="41.04"> </tspan></text>
</g>
<g clip-path="url(#clip_222)">
<text xml:space="preserve" transform="matrix(1 0 -0 1 0 841.92)" font-size="11.04" font-family="ArialMT"><tspan y="-630.1" x="54 61.319524 67.45776 70.526889 76.66512 85.9056 91.90032 95.0136 97.40929 103.54752 109.65264 112.76592">Automation: </tspan></text>
</g>
<g clip-path="url(#clip_223)">
<text xml:space="preserve" transform="matrix(1 0 -0 1 0 841.92)" font-size="11.04" font-family="ArialMT"><tspan y="-630.1" x="115.94">A</tspan></text>
</g>
<g clip-path="url(#clip_224)">
<text xml:space="preserve" transform="matrix(1 0 -0 1 0 841.92)" font-size="11.04" font-family="ArialMT"><tspan y="-630.1" x="123.26 129.25472 132.368 138.50624 147.70256 153.73041 156.84369 159.23937 165.37761 171.48273 174.48561 177.59889 181.30834 187.30306 196.5325 202.67075 210.5754 216.71364 220.38996 225.90996 231.3306 234.44388">utomation frameworks, </tspan></text>
</g>
<g clip-path="url(#clip_225)">
<text xml:space="preserve" transform="matrix(1 0 -0 1 0 841.92)" font-size="11.04" font-family="ArialMT"><tspan y="-630.1" x="237.65">P</tspan></text>
</g>
<g clip-path="url(#clip_226)">
<text xml:space="preserve" transform="matrix(1 0 -0 1 0 841.92)" font-size="11.04" font-family="ArialMT"><tspan y="-630.1" x="244.97 251.10825 257.21339 263.2081 266.32139 270.03083 276.02555 279.13883 281.5345 287.67274 293.77787 296.78074 299.894 306.03227 311.55226 314.62138 317.07225 323.17738 329.3156 332.29643 335.4097 341.54795 347.65309 350.04875 355.56874 358.5716">enetration testing tools, </tspan></text>
</g>
<g clip-path="url(#clip_227)">
<text xml:space="preserve" transform="matrix(1 0 -0 1 0 841.92)" font-size="11.04" font-family="ArialMT"><tspan y="-630.1" x="361.75">C</tspan></text>
</g>
<g clip-path="url(#clip_228)">
<text xml:space="preserve" transform="matrix(1 0 -0 1 0 841.92)" font-size="11.04" font-family="ArialMT"><tspan y="-630.1" x="369.67 375.80827 381.32826 384.39738 390.4252 399.54426 402.65754 408.17753 414.17225 419.69224 425.83049 429.5068 431.95768 435.0268 440.44743 443.5607 449.0807 454.60069 458.31013 460.70579 466.84403 469.82484">ustom security scripts</tspan></text>
</g>
<g clip-path="url(#clip_229)">
<text xml:space="preserve" transform="matrix(1 0 -0 1 0 841.92)" font-size="11.04" font-family="ArialMT"><tspan y="-630.1" x="475.42">.</tspan></text>
</g>
<g clip-path="url(#clip_230)">
<text xml:space="preserve" transform="matrix(1 0 -0 1 0 841.92)" font-size="11.04" font-family="ArialMT"><tspan y="-630.1" x="478.42"> </tspan></text>
</g>
<g clip-path="url(#clip_231)">
<text xml:space="preserve" transform="matrix(1 0 -0 1 0 841.92)" font-size="11.04" font-family="SymbolMT"><tspan y="-614.74" x="36">&#x2022;</tspan></text>
</g>
<g clip-path="url(#clip_232)">
<text xml:space="preserve" transform="matrix(1 0 -0 1 0 841.92)" font-size="11.04" font-family="ArialMT"><tspan y="-614.74" x="41.04"> </tspan></text>
</g>
<g clip-path="url(#clip_233)">
<text xml:space="preserve" transform="matrix(1 0 -0 1 0 841.92)" font-size="11.04" font-family="ArialMT"><tspan y="-614.74" x="54 61.319524 67.45776 72.97776 79.08288 82.79232 85.188 88.301288 93.82128 96.93456 104.13264 107.24592 113.991359 120.085437 125.60543 128.7187 131.11438 137.25263 143.23632 146.3496 149.46288 157.37856 162.89856 168.89328 172.49231 178.63056 181.69968 184.84609 190.8408 194.55025 197.66353 203.65825 207.36769 213.50594 216.57506">Security &#x0026; Testing: Hydra for brute</tspan></text>
</g>
<g clip-path="url(#clip_234)">
<text xml:space="preserve" transform="matrix(1 0 -0 1 0 841.92)" font-size="11.04" font-family="ArialMT"><tspan y="-614.74" x="222.77">-</tspan></text>
</g>
<g clip-path="url(#clip_235)">
<text xml:space="preserve" transform="matrix(1 0 -0 1 0 841.92)" font-size="11.04" font-family="ArialMT"><tspan y="-614.74" x="226.49 229.60329 235.598 239.30745 244.82746 250.9657 253.9465 263.17594 269.31419 274.83418 280.9393 287.07756 293.06123 295.45689 300.97688 310.2063 313.31959 319.45783 325.56297 331.7012 334.08583 339.6058 345.1258 347.52146 353.04145 356.0443 359.75376 362.1494 368.28767 371.35679 377.49504 383.51185 386.62513 392.76338 395.8325 401.97074 404.3885 409.78706 415.9253 418.3099 421.4232 424.53648 430.6747 436.1947 439.26383 441.7147 447.81983 453.81455 456.92784 462.4478 468.58607 474.6912 477.80448 483.7992 489.31919 492.32206 496.0315">force mechanism analysis (in an ethical testing context).</tspan></text>
</g>
<g clip-path="url(#clip_236)">
<text xml:space="preserve" transform="matrix(1 0 -0 1 0 841.92)" font-size="11.04" font-family="ArialMT"><tspan y="-614.74" x="499.18"> </tspan></text>
</g>
<g clip-path="url(#clip_237)">
<text xml:space="preserve" transform="matrix(1 0 -0 1 0 841.92)" font-size="11.04" font-family="SymbolMT"><tspan y="-599.5" x="36">&#x2022;</tspan></text>
</g>
<g clip-path="url(#clip_238)">
<text xml:space="preserve" transform="matrix(1 0 -0 1 0 841.92)" font-size="11.04" font-family="ArialMT"><tspan y="-599.5" x="41.04"> </tspan></text>
</g>
<g clip-path="url(#clip_239)">
<text xml:space="preserve" transform="matrix(1 0 -0 1 0 841.92)" font-size="11.04" font-family="ArialMT"><tspan y="-599.5" x="54 61.319524 67.45776 71.13409 76.65408 79.104969 85.19904 91.33728 94.4064 102.37728 108.4824 114.620639 117.60144 121.31088 127.44912 129.83376 132.94704 135.94992 144.5832 146.97888 149.98177 153.09505 160.41457 163.41745 172.05074 174.44641 177.5597 185.47537 191.61362 197.71874 200.83202 203.9453 209.94002 213.64946 216.65235 222.17235 228.3106 237.40755 246.637 249.03267 252.03556 255.14884 257.5445 263.68275 269.78788 272.90116 276.01445 282.15269 288.2578 293.65638 299.79463 302.17924 308.31748 314.4226 317.5359 320.64918 326.7874 332.89256 339.0308 342.0999 347.6199 353.75816 356.1759 358.57157 364.7098 370.81495 376.9532 380.62953 386.65736 389.77064 392.1663 398.30455 404.40968 407.52296 413.51768 419.6559 422.72505 428.86329 432.58378 438.5785 441.08457 447.2228 452.7428 455.7236 461.2436">Version Control: Git &#x0026; GitHub for committing, pushing, and collaborating on projects.</tspan></text>
</g>
<g clip-path="url(#clip_240)">
<text xml:space="preserve" transform="matrix(1 0 -0 1 0 841.92)" font-size="11.04" font-family="ArialMT"><tspan y="-599.5" x="464.5"> </tspan></text>
</g>
<g clip-path="url(#clip_241)">
<text xml:space="preserve" transform="matrix(1 0 -0 1 0 841.92)" font-size="11.04" font-family="SymbolMT"><tspan y="-584.26" x="36">&#x2022;</tspan></text>
</g>
<g clip-path="url(#clip_242)">
<text xml:space="preserve" transform="matrix(1 0 -0 1 0 841.92)" font-size="11.04" font-family="ArialMT"><tspan y="-584.26" x="41.04"> </tspan></text>
</g>
<g clip-path="url(#clip_243)">
<text xml:space="preserve" transform="matrix(1 0 -0 1 0 841.92)" font-size="11.04" font-family="ArialMT"><tspan y="-584.26" x="54 61.91568 68.05392 73.57391 79.67903 82.074718 88.21295 94.31807 103.54751 109.685749 115.79086 118.904148 122.017429 129.33695 135.47519 140.9952 143.25839 146.96784 153.10608 159.2112 168.44065 174.43537 180.57361 183.64273 189.16274 192.19873 195.31201 202.63153 209.95105 213.06433 220.98001 227.11826 233.22338 239.36162 242.34243 245.4557 252.77523 258.91346 266.81809 272.95634 276.63267 283.99635 290.10148 296.0962 298.49186 300.8875 304.0008 307.11408 317.53584 319.9867 326.06974 332.20799 338.3131 346.2288 351.74879 354.86207 362.77775 368.916 371.8968 375.01008 378.12336 384.2616 390.36674 396.36146 399.47474 406.79426 412.9325 415.3171 417.71278 420.82606 426.9643 429.3489 435.48716 441.5923 447.11228">Development Environments: VS Code, PowerShell, Windows CLI, and Kali Linux.</tspan></text>
</g>
<g clip-path="url(#clip_244)">
<text xml:space="preserve" transform="matrix(1 0 -0 1 0 841.92)" font-size="11.04" font-family="ArialMT"><tspan y="-584.26" x="450.34"> </tspan></text>
</g>
<g clip-path="url(#clip_245)">
<text xml:space="preserve" transform="matrix(1 0 -0 1 0 841.92)" font-size="11.04" font-family="SymbolMT"><tspan y="-568.87" x="36">&#x2022;</tspan></text>
</g>
<g clip-path="url(#clip_246)">
<text xml:space="preserve" transform="matrix(1 0 -0 1 0 841.92)" font-size="11.04" font-family="ArialMT"><tspan y="-568.87" x="41.04"> </tspan></text>
</g>
<g clip-path="url(#clip_247)">
<text xml:space="preserve" transform="matrix(1 0 -0 1 0 841.92)" font-size="11.04" font-family="ArialMT"><tspan y="-568.87" x="54 61.91568 68.05392 74.159038 77.272319 83.41055 85.7952 91.93343 98.03855 101.74799 104.14368 109.66367 115.80191 118.87103 121.321918 127.42703 133.56528 136.6344 143.99808 147.10033 155.016 161.01073 164.12401 170.26226 173.24306 176.24594 184.16162 190.29987 195.81987 201.33988 207.44499 211.15444 214.15732 217.2706 223.40885 226.9858 230.09908 235.61908 241.75733 247.86244 250.97573 257.11396 259.49858 265.6368 271.62049 275.32994 277.7256 283.24559 289.38383 295.48896 298.49183 304.63008 310.7352 316.87345 322.39344 325.46257 331.6008 337.73905 343.8773 346.9464 354.1776 357.88706 364.0253 367.09443 373.23268 379.3709 385.36564 388.4789 391.48179 394.59507 400.7333 404.31028 407.42356 413.5618 419.54548 425.06547 431.2037 437.30885 439.7045 445.84275 451.94789 455.06117 460.58116 466.7194 470.39573 472.8466 478.94068 481.33634 483.732 489.25199 495.39024 501.49537 504.60865 510.7469 516.852 519.9653 525.96">Containerization &#x0026; Data: Docker for containerized apps and Protobuf for decoding serialized data.</tspan></text>
</g>
<g clip-path="url(#clip_248)">
<text xml:space="preserve" transform="matrix(1 0 -0 1 0 841.92)" font-size="11.04" font-family="ArialMT"><tspan y="-568.87" x="529.18"> </tspan></text>
</g>
<g clip-path="url(#clip_249)">
<text xml:space="preserve" transform="matrix(1 0 -0 1 0 841.92)" font-size="11.04" font-family="SymbolMT"><tspan y="-553.63" x="36">&#x2022;</tspan></text>
</g>
<g clip-path="url(#clip_250)">
<text xml:space="preserve" transform="matrix(1 0 -0 1 0 841.92)" font-size="11.04" font-family="ArialMT"><tspan y="-553.63" x="41.04"> </tspan></text>
</g>
<g clip-path="url(#clip_251)">
<text xml:space="preserve" transform="matrix(1 0 -0 1 0 841.92)" font-size="11.04" font-family="ArialMT"><tspan y="-553.63" x="54 61.91568 68.05392 73.57391 75.95856 82.096797 88.20191 91.31519 94.428478 100.56671 103.63583 109.77407 115.79087 119.50031 125.63855 128.70767 131.15856 137.26367 143.40192 146.38272 149.496 156.24144 158.61504 164.75328 173.85024 179.98848 183.0576 186.20401 192.19873 195.90818 198.91106 202.02434 205.73378 211.87203 217.97714 223.49715 225.89282 232.03107 235.10019 237.55107 243.65619 249.65091 252.76419 258.90245 265.00758 270.52757 272.92323 279.06147 285.1666 288.27989 294.2746 297.98405 304.12229 307.1914 313.21925 316.33253 321.8525 327.99076 334.0959 339.61589 342.72917 345.12483 351.11955 354.23283 360.37107 363.4402 365.89106 371.9962 375.10948 381.1042 384.81364 390.95188 396.32835 399.44163 401.83729 407.35728 413.4955 416.47633 421.9963 428.13456 437.33088 443.46913 449.60737 455.7456 461.8397 467.97795 470.95875 476.47874">Design Integration: Figma for translating design prototypes into interactive components.</tspan></text>
</g>
<g clip-path="url(#clip_252)">
<text xml:space="preserve" transform="matrix(1 0 -0 1 0 841.92)" font-size="11.04" font-family="ArialMT"><tspan y="-553.63" x="479.74"> </tspan></text>
</g>
<g clip-path="url(#clip_253)">
<text xml:space="preserve" transform="matrix(1 0 -0 1 0 841.92)" font-size="11.04" font-family="ArialMT"><tspan y="-538.99" x="36"> </tspan></text>
</g>
<g clip-path="url(#clip_254)">
<text xml:space="preserve" transform="matrix(1 0 -0 1 0 841.92)" font-size="11.04" font-family="Arial" font-weight="bold"><tspan y="-524.47" x="36 43.91568 50.66112 54.95568 61.09392 64.16304 72.13392 78.8352 88.64976 95.395198 101.53343 105.209758 111.34799 118.09343 124.07711 127.19039 133.32863">Core Competencies</tspan></text>
</g>
<g clip-path="url(#clip_255)">
<text xml:space="preserve" transform="matrix(1 0 -0 1 0 841.92)" font-size="11.04" font-family="Arial" font-weight="bold"><tspan y="-524.47" x="139.34"> </tspan></text>
</g>
<g clip-path="url(#clip_256)">
<text xml:space="preserve" transform="matrix(1 0 -0 1 0 841.92)" font-size="11.04" font-family="ArialMT"><tspan y="-509.95" x="36"> </tspan></text>
</g>
<g clip-path="url(#clip_257)">
<text xml:space="preserve" transform="matrix(1 0 -0 1 0 841.92)" font-size="11.04" font-family="SymbolMT"><tspan y="-494.71" x="36">&#x2022;</tspan></text>
</g>
<g clip-path="url(#clip_258)">
<text xml:space="preserve" transform="matrix(1 0 -0 1 0 841.92)" font-size="11.04" font-family="ArialMT"><tspan y="-494.71" x="41.04"> </tspan></text>
</g>
<g clip-path="url(#clip_259)">
<text xml:space="preserve" transform="matrix(1 0 -0 1 0 841.92)" font-size="11.04" font-family="ArialMT"><tspan y="-494.71" x="54 61.319524 67.45776 72.97776 79.08288 82.79232 85.188 88.301288 93.82128 96.93456 103.68 109.65263 115.17263 118.28591 120.681598 126.81983 132.92494 135.92783 139.0411 146.36063 152.49887 158.60399 160.99967 166.51967 172.03968 174.43535 180.5736 186.67871 189.79199 192.18767 198.32592 201.39504 207.53328 211.25376 217.392 223.49712 225.89279 229.00608 231.40175 237.54 243.64511 246.04079 252.17903 255.24816 261.38639 267.52464 273.04463 275.44029 281.57853 287.68367 293.67839 299.19837 302.31166 305.42494 311.56318 317.6683 323.80656 329.91169 335.9064 339.61585 345.13584 348.1387 351.25199 357.39024 363.49537 369.49009 372.60337 379.92289 387.2424 390.35569 395.75425 398.86753 401.9808 407.97554 411.68498 414.68785 420.20783 426.34608 428.73069 434.86894 440.97407 444.6835 450.82176 456.92689 459.32255 461.7182 464.11387 467.22715 469.6228 475.76106 481.28105">Security Testing: Analyzing internal login payloads, headers, and APIs for vulnerabilities.</tspan></text>
</g>
<g clip-path="url(#clip_260)">
<text xml:space="preserve" transform="matrix(1 0 -0 1 0 841.92)" font-size="11.04" font-family="ArialMT"><tspan y="-494.71" x="484.66"> </tspan></text>
</g>
<g clip-path="url(#clip_261)">
<text xml:space="preserve" transform="matrix(1 0 -0 1 0 841.92)" font-size="11.04" font-family="SymbolMT"><tspan y="-479.35" x="36">&#x2022;</tspan></text>
</g>
<g clip-path="url(#clip_262)">
<text xml:space="preserve" transform="matrix(1 0 -0 1 0 841.92)" font-size="11.04" font-family="ArialMT"><tspan y="-479.35" x="41.04"> </tspan></text>
</g>
<g clip-path="url(#clip_263)">
<text xml:space="preserve" transform="matrix(1 0 -0 1 0 841.92)" font-size="11.04" font-family="ArialMT"><tspan y="-479.35" x="54 61.91568 68.05392 71.12304 77.26128 80.50704 87.82656 93.9648 97.64112 103.16112 105.612 111.70608 117.7008 120.81408 124.03776 131.95343 138.09168 143.61168 149.7168 155.85504 158.23969 164.37793 170.48305 173.59633 179.73458 185.83969 191.97794 195.19058 201.32883 207.43395 213.57219 219.6773 222.07299 224.46866 230.6069 236.71202 239.9357 245.4557 251.59395 260.79029 266.92854 269.33525 275.47349 280.84996 284.07365 290.21189 296.19557 299.30885 305.44709 308.65974 314.0583 317.17158 320.881 327.01927 332.39573 335.509 341.64726 345.2242 351.36247 356.88246 360.0951 362.49076 368.629 374.149 376.5336 382.67185 388.77699 391.17265 397.31089 403.41603 406.6397 409.03538 415.0301 421.16835 426.68833 429.75746 433.01426 438.53425 445.73234 454.3656 462.28129 465.28416 468.50785 476.42353 483.74305 491.06257 494.06544 497.28913 503.42738 509.5325 515.6707 518.8833 526.0814 529.7909 535.78567 538.8989 545.0372 550.5572 556.6623 559.058">Data Parsing: Decoding and handling complex data structures including logs, JSON, CSV, and Protocol </tspan></text>
</g>
<g clip-path="url(#clip_264)">
<text xml:space="preserve" transform="matrix(1 0 -0 1 0 841.92)" font-size="11.04" font-family="ArialMT"><tspan y="-464.83" x="54 61.319524 67.45776 70.526889 73.67329 79.81152 83.38849 88.908489">Buffers.</tspan></text>
</g>
<g clip-path="url(#clip_265)">
<text xml:space="preserve" transform="matrix(1 0 -0 1 0 841.92)" font-size="11.04" font-family="ArialMT"><tspan y="-464.83" x="91.944"> </tspan></text>
</g>
<g clip-path="url(#clip_266)">
<text xml:space="preserve" transform="matrix(1 0 -0 1 0 841.92)" font-size="11.04" font-family="SymbolMT"><tspan y="-449.59" x="36">&#x2022;</tspan></text>
</g>
<g clip-path="url(#clip_267)">
<text xml:space="preserve" transform="matrix(1 0 -0 1 0 841.92)" font-size="11.04" font-family="ArialMT"><tspan y="-449.59" x="41.04"> </tspan></text>
</g>
<g clip-path="url(#clip_268)">
<text xml:space="preserve" transform="matrix(1 0 -0 1 0 841.92)" font-size="11.04" font-family="ArialMT"><tspan y="-449.59" x="54 61.319524 67.45776 70.526889 73.67329 81.58897 87.7272 91.40353 97.431369 100.54465 108.46033 114.598567 120.11856 126.22368 128.61936 134.7576 140.86272 150.09217 156.23041 162.2141 165.32738 168.33026 171.33315 178.65267 184.79091 190.89603 194.00931 197.12259 200.83203 206.82675 212.34676 217.86676 220.26244 226.40068 232.5058 235.61908 238.62197 244.14197 246.53765 248.93332 255.07157 261.1767">Software Development: Bug tracking, client</tspan></text>
</g>
<g clip-path="url(#clip_269)">
<text xml:space="preserve" transform="matrix(1 0 -0 1 0 841.92)" font-size="11.04" font-family="ArialMT"><tspan y="-449.59" x="264.41">-</tspan></text>
</g>
<g clip-path="url(#clip_270)">
<text xml:space="preserve" transform="matrix(1 0 -0 1 0 841.92)" font-size="11.04" font-family="ArialMT"><tspan y="-449.59" x="268.13 274.26826 277.94459 280.39546 286.48954 292.48426 295.59754 301.73579 307.8409 310.9542 317.09245 323.19758 328.71757 334.8558 337.24043 343.37867 349.36235 358.59178 364.73 370.83515 373.838 376.9513 380.06459 386.20283 392.30796 398.30268 401.41596 407.5542 413.53788 415.93354 418.3292 424.46745 426.85206 432.9903 439.09544 442.2087 451.43815 458.75767 466.07719 471.59718 474.71046 477.82374 483.81846 487.5279 490.64118 493.03684 499.17509 502.2442 508.27204 511.98149 518.1197 524.2248 526.6205 529.73379 532.73666 538.8749 544.98 547.3757 552.8957">oriented development, and building MVPs for internal tools.</tspan></text>
</g>
<g clip-path="url(#clip_271)">
<text xml:space="preserve" transform="matrix(1 0 -0 1 0 841.92)" font-size="11.04" font-family="ArialMT"><tspan y="-449.59" x="556.18"> </tspan></text>
</g>
<g clip-path="url(#clip_272)">
<text xml:space="preserve" transform="matrix(1 0 -0 1 0 841.92)" font-size="11.04" font-family="ArialMT"><tspan y="-434.95" x="36"> </tspan></text>
</g>
<g clip-path="url(#clip_273)">
<text xml:space="preserve" transform="matrix(1 0 -0 1 0 841.92)" font-size="11.04" font-family="Arial" font-weight="bold"><tspan y="-420.43" x="36 43.319524 47.614084 54.359525 58.068964 64.2072 70.31232 76.450557 79.51968 86.265117 93.01055 98.99423 102.10751 105.220798 112.54031 118.535037 121.648319 124.6512 127.76448">Professional Skills</tspan></text>
</g>
<g clip-path="url(#clip_274)">
<text xml:space="preserve" transform="matrix(1 0 -0 1 0 841.92)" font-size="11.04" font-family="Arial" font-weight="bold"><tspan y="-420.43" x="133.82"> </tspan></text>
</g>
<g clip-path="url(#clip_275)">
<text xml:space="preserve" transform="matrix(1 0 -0 1 0 841.92)" font-size="11.04" font-family="Arial" font-weight="bold"><tspan y="-405.91" x="36"> </tspan></text>
</g>
<g clip-path="url(#clip_276)">
<text xml:space="preserve" transform="matrix(1 0 -0 1 0 841.92)" font-size="11.04" font-family="SymbolMT"><tspan y="-390.65" x="36">&#x2022;</tspan></text>
</g>
<g clip-path="url(#clip_277)">
<text xml:space="preserve" transform="matrix(1 0 -0 1 0 841.92)" font-size="11.04" font-family="ArialMT"><tspan y="-390.65" x="41.04"> </tspan></text>
</g>
<g clip-path="url(#clip_278)">
<text xml:space="preserve" transform="matrix(1 0 -0 1 0 841.92)" font-size="11.04" font-family="ArialMT"><tspan y="-390.65" x="54 61.319524 65.02896 71.1672 77.272319 79.668 85.80624">Problem</tspan></text>
</g>
<g clip-path="url(#clip_279)">
<text xml:space="preserve" transform="matrix(1 0 -0 1 0 841.92)" font-size="11.04" font-family="ArialMT"><tspan y="-390.65" x="95.064">-</tspan></text>
</g>
<g clip-path="url(#clip_280)">
<text xml:space="preserve" transform="matrix(1 0 -0 1 0 841.92)" font-size="11.04" font-family="ArialMT"><tspan y="-390.65" x="98.784 106.103519 112.24175 114.626399 120.14639 122.542079 128.68032 134.78543 137.78832 140.9016 148.22112 151.3344 155.04384 161.18209 167.2872 173.28192 176.2848 178.68048 184.81873 190.92385 193.31952 198.83953 204.97777 207.36241 210.4757 213.58898 219.72722 222.11186 228.2501 233.77011 236.15476 242.293 248.39812 251.5114 254.62468 260.7629 264.33988 267.45317 273.5914 279.69654 285.83479 291.9399 297.93464 304.07289 306.4575 312.59574 318.70088 321.81416 327.33415 332.85414 336.56358 338.95924 345.09748 348.1666 353.59828 356.71156 362.8498 368.95494 375.09318 378.1623 384.30055 390.31736 393.43064 395.8263 405.05574 407.4514 412.97138 415.25666 421.3949 427.50004 430.6133 436.75157 442.8567 445.96998 451.9647 461.19413 467.33238 470.4015 472.85237 478.9575 484.9522 488.0655 495.98118 502.11943 505.79576 511.31575 514.45108 516.84677 522.985 530.88967 536.2882">Solving: Strong logical thinking for debugging scripts and optimizing automation workflows.</tspan></text>
</g>
<g clip-path="url(#clip_281)">
<text xml:space="preserve" transform="matrix(1 0 -0 1 0 841.92)" font-size="11.04" font-family="ArialMT"><tspan y="-390.65" x="539.5"> </tspan></text>
</g>
<g clip-path="url(#clip_282)">
<text xml:space="preserve" transform="matrix(1 0 -0 1 0 841.92)" font-size="11.04" font-family="SymbolMT"><tspan y="-375.29" x="36">&#x2022;</tspan></text>
</g>
<g clip-path="url(#clip_283)">
<text xml:space="preserve" transform="matrix(1 0 -0 1 0 841.92)" font-size="11.04" font-family="ArialMT"><tspan y="-375.29" x="41.04"> </tspan></text>
</g>
<g clip-path="url(#clip_284)">
<text xml:space="preserve" transform="matrix(1 0 -0 1 0 841.92)" font-size="11.04" font-family="ArialMT"><tspan y="-375.29" x="54 61.319524 67.45776 73.56288 79.70112 82.77024 88.90848 95.046718 97.4424 99.83808 102.233768 105.347049 110.86704 113.98032 116.98321 125.616489 131.75473 134.13938 139.65938 145.17938 148.29267 150.68834 156.82659 162.9317 166.64115 172.77939 175.04259 181.18083 187.28595 190.39923 196.53748 202.6426 208.78084 211.84996 217.9882 224.12645 226.52213 228.9178 231.31348 234.42676 239.94676 242.94965 246.06293 252.20117 255.18198 260.70198 268.61766 271.0133 274.1266 279.64659 285.78483 288.85395 294.88179 301.02003 304.08915 312.06004 318.16517 324.3034 330.40855 333.52183 340.84135 346.36134 349.4746 355.61286 361.59654 367.73478 370.71559 373.82887 381.74455 387.88279 390.9519 393.9879 399.5079 405.64616 411.16615 417.1498 424.46934 429.98933 433.69877 436.09443 442.23268 445.3018 448.3378 451.45109 457.58934 463.69447 469.8327 472.90184 478.4218 484.44966 488.1591 490.55476 496.693 502.79814 508.3181 511.32099 514.43429 520.5725 526.6776 529.0733 534.5933">Adaptability: Quick learning and ability to switch between Python, C#, JavaScript, and various tools.</tspan></text>
</g>
<g clip-path="url(#clip_285)">
<text xml:space="preserve" transform="matrix(1 0 -0 1 0 841.92)" font-size="11.04" font-family="ArialMT"><tspan y="-375.29" x="537.82"> </tspan></text>
</g>
<g clip-path="url(#clip_286)">
<text xml:space="preserve" transform="matrix(1 0 -0 1 0 841.92)" font-size="11.04" font-family="SymbolMT"><tspan y="-360.05" x="36">&#x2022;</tspan></text>
</g>
<g clip-path="url(#clip_287)">
<text xml:space="preserve" transform="matrix(1 0 -0 1 0 841.92)" font-size="11.04" font-family="ArialMT"><tspan y="-360.05" x="41.04"> </tspan></text>
</g>
<g clip-path="url(#clip_288)">
<text xml:space="preserve" transform="matrix(1 0 -0 1 0 841.92)" font-size="11.04" font-family="ArialMT"><tspan y="-360.05" x="54 61.91568 68.05392 70.43856 72.83424 78.97248 85.0776 91.215839 94.89216 101.030399 104.14368 106.53936 112.6776 118.782718 121.895999 125.00928 135.43103 141.44783 145.15727 150.67728 153.07295 159.2112 165.31632 168.4296 174.42432 177.5376 180.65088 186.78913 192.1656 195.27889 197.67456 203.19457 209.33281 211.71746 217.23746 220.35074 222.74642 228.88466 231.95378 237.38547 246.61492 252.75316 255.1378 257.53349 260.64677 263.76005 269.8983 275.88197 285.1114 290.50996 293.51283 297.22227 303.9677 310.0618 316.20005 325.297 328.41029 337.04356">Collaboration: Working effectively in small teams (Team QX</tspan></text>
</g>
<g clip-path="url(#clip_289)">
<text xml:space="preserve" transform="matrix(1 0 -0 1 0 841.92)" font-size="11.04" font-family="ArialMT"><tspan y="-360.05" x="344.47"> </tspan></text>
</g>
<g clip-path="url(#clip_290)">
<text xml:space="preserve" transform="matrix(1 0 -0 1 0 841.92)" font-size="11.04" font-family="ArialMT"><tspan y="-360.05" x="347.59 351.18907 359.82234 365.96058 368.34519 373.86518 379.38517">&#x201c;Quick </tspan></text>
</g>
<g clip-path="url(#clip_291)">
<text xml:space="preserve" transform="matrix(1 0 -0 1 0 841.92)" font-size="11.04" font-family="ArialMT"><tspan y="-360.05" x="382.51 389.82954 395.34953 401.34425 406.86424 413.00248 415.98329 418.37895 424.51719">Execution</tspan></text>
</g>
<g clip-path="url(#clip_292)">
<text xml:space="preserve" transform="matrix(1 0 -0 1 0 841.92)" font-size="11.04" font-family="ArialMT"><tspan y="-360.05" x="430.63">&#x201d;</tspan></text>
</g>
<g clip-path="url(#clip_293)">
<text xml:space="preserve" transform="matrix(1 0 -0 1 0 841.92)" font-size="11.04" font-family="ArialMT"><tspan y="-360.05" x="434.35 438.05946 441.17274 447.31098 453.29466 456.40794 464.3236 470.46186 476.567 479.68028 485.8185 491.92366 498.0619 500.4465 502.84217 508.36216 514.50039 517.56948 520.0203 526.1254 532.2637 537.6402">) on web applications.</tspan></text>
</g>
<g clip-path="url(#clip_294)">
<text xml:space="preserve" transform="matrix(1 0 -0 1 0 841.92)" font-size="11.04" font-family="ArialMT"><tspan y="-360.05" x="540.7"> </tspan></text>
</g>
<g clip-path="url(#clip_295)">
<text xml:space="preserve" transform="matrix(1 0 -0 1 0 841.92)" font-size="11.04" font-family="SymbolMT"><tspan y="-344.69" x="36">&#x2022;</tspan></text>
</g>
<g clip-path="url(#clip_296)">
<text xml:space="preserve" transform="matrix(1 0 -0 1 0 841.92)" font-size="11.04" font-family="ArialMT"><tspan y="-344.69" x="41.04"> </tspan></text>
</g>
<g clip-path="url(#clip_297)">
<text xml:space="preserve" transform="matrix(1 0 -0 1 0 841.92)" font-size="11.04" font-family="ArialMT"><tspan y="-344.69" x="54 61.91568 68.05392 77.25024 86.501758 92.63999 98.74511 101.14079 106.66079 112.79903 115.86815 118.31903 124.42415 130.41887 133.53215 136.53504 146.95679 150.68831 153.08399 156.19727 158.59294 164.73119 170.8363 173.83919 179.35919 181.75487 187.89311 193.99823 197.70767 200.82096 206.9592 213.06432 218.58432 224.57904 233.80849 239.94673 246.05185 249.16513 255.15985 258.27314 260.6688 266.80705 272.91218 276.02546 282.1637 288.26884 294.26356 297.37684 303.51509 309.03507 315.1402 317.53587 323.6741 326.05873 332.19697 334.58158 340.71983 346.82496 349.93824 353.0515 359.18977 364.70976 370.81489 376.95314 379.33775 384.85774 390.99598 393.38059 396.49388 401.89244 405.0057 411.00044 417.13868 422.65867 425.72779 428.87419 434.8689 437.98219 444.12043 447.18955 453.3278 459.3446 463.05406 468.4526">Communication: Writing clear documentation and explaining technical steps to others.</tspan></text>
</g>
<g clip-path="url(#clip_298)">
<text xml:space="preserve" transform="matrix(1 0 -0 1 0 841.92)" font-size="11.04" font-family="ArialMT"><tspan y="-344.69" x="471.7"> </tspan></text>
</g>
<g clip-path="url(#clip_299)">
<text xml:space="preserve" transform="matrix(1 0 -0 1 0 841.92)" font-size="11.04" font-family="SymbolMT"><tspan y="-329.45" x="36">&#x2022;</tspan></text>
</g>
<g clip-path="url(#clip_300)">
<text xml:space="preserve" transform="matrix(1 0 -0 1 0 841.92)" font-size="11.04" font-family="ArialMT"><tspan y="-329.45" x="41.04"> </tspan></text>
</g>
<g clip-path="url(#clip_301)">
<text xml:space="preserve" transform="matrix(1 0 -0 1 0 841.92)" font-size="11.04" font-family="ArialMT"><tspan y="-329.45" x="54 61.319524 64.4328 67.54608 73.68432 79.78944 82.90272 85.2984 91.43664 97.42032 100.5336 103.64688 109.6416 112.75488 120.67056 126.8088 129.87792 136.01616 138.43392 140.82959 143.94287 146.94576 156.1752 162.16992 165.2832 167.67888 173.19889 179.33713 181.72177 187.86002 193.96514 199.48514 202.59842 208.73667 214.84178 220.98003 224.65634 230.79459 236.93283 242.45284 248.43653 251.5498 254.66309 260.6578 263.7711 269.29109 275.42933 280.9493 286.93299 290.64244 293.0381 296.15138 301.67137 304.67424 307.7875 313.92576 319.44575 322.51487 324.96574 331.07087 337.06559 340.17887 343.29216 349.4304 355.41407 358.52735 364.6656 367.7347 373.87297 379.88978 383.5992 389.1192 391.51487 397.6531 403.75825 406.7611 409.76399 415.90223 422.00736 428.1456 431.21473 440.4773 446.61555 449.00016 452.11344">Attention to Detail: Meticulous approach to security testing, data parsing, and multi</tspan></text>
</g>
<g clip-path="url(#clip_302)">
<text xml:space="preserve" transform="matrix(1 0 -0 1 0 841.92)" font-size="11.04" font-family="ArialMT"><tspan y="-329.45" x="454.78">-</tspan></text>
</g>
<g clip-path="url(#clip_303)">
<text xml:space="preserve" transform="matrix(1 0 -0 1 0 841.92)" font-size="11.04" font-family="ArialMT"><tspan y="-329.45" x="458.38 461.4933 467.488 471.19746 477.3357 483.44084 489.57908 495.6842 501.82246 504.89158 510.41157 515.84329 519.55276 521.9484 528.0867 531.06747 536.58749">threaded scripts.</tspan></text>
</g>
<g clip-path="url(#clip_304)">
<text xml:space="preserve" transform="matrix(1 0 -0 1 0 841.92)" font-size="11.04" font-family="ArialMT"><tspan y="-329.45" x="539.62"> </tspan></text>
</g>
<g clip-path="url(#clip_305)">
<text xml:space="preserve" transform="matrix(1 0 -0 1 0 841.92)" font-size="15.96" font-family="Arial" font-weight="bold"><tspan y="-310.25" x="36"> </tspan></text>
</g>
<g clip-path="url(#clip_306)">
<text xml:space="preserve" transform="matrix(1 0 -0 1 0 841.92)" font-size="15.96" font-family="Arial" font-weight="bold"><tspan y="-281.09" x="36 45.75156 57.27468 68.86165 81.21468 92.73781 104.35668 116.70972 127.35504">LANGUAGES</tspan></text>
</g>
<g clip-path="url(#clip_307)">
<text xml:space="preserve" transform="matrix(1 0 -0 1 0 841.92)" font-size="15.96" font-family="Arial" font-weight="bold"><tspan y="-281.09" x="138.26"> </tspan></text>
</g>
<g clip-path="url(#clip_308)">
<path transform="matrix(1,0,0,-1,0,841.92)" d="M34.56 273.41H560.86V273.89006H34.56Z" fill-rule="evenodd"/>
</g>
<g clip-path="url(#clip_309)">
<text xml:space="preserve" transform="matrix(1 0 -0 1 0 841.92)" font-size="11.04" font-family="SymbolMT"><tspan y="-254.33" x="36">&#x2022;</tspan></text>
</g>
<g clip-path="url(#clip_310)">
<text xml:space="preserve" transform="matrix(1 0 -0 1 0 841.92)" font-size="11.04" font-family="ArialMT"><tspan y="-254.33" x="41.04"> </tspan></text>
</g>
<g clip-path="url(#clip_311)">
<text xml:space="preserve" transform="matrix(1 0 -0 1 0 841.92)" font-size="9.96" font-family="Arial" font-weight="bold"><tspan y="-254.33" x="54 61.19112 65.06556 70.56348 76.66895 79.437839 85.055278">Arabic </tspan></text>
</g>
<g clip-path="url(#clip_312)">
<text xml:space="preserve" transform="matrix(1 0 -0 1 0 841.92)" font-size="9.96" font-family="Arial" font-weight="bold"><tspan y="-254.33" x="87.864">&#x2013;</tspan></text>
</g>
<g clip-path="url(#clip_313)">
<text xml:space="preserve" transform="matrix(1 0 -0 1 0 841.92)" font-size="9.96" font-family="Arial" font-weight="bold"><tspan y="-254.33" x="93.384"> </tspan></text>
</g>
<g clip-path="url(#clip_314)">
<text xml:space="preserve" transform="matrix(1 0 -0 1 0 841.92)" font-size="9.96" font-family="Arial" font-weight="bold"><tspan y="-254.33" x="96.144 103.45464 108.9924 112.30908 115.077968 120.61572 126.15348 128.92237">Native  </tspan></text>
</g>
<g clip-path="url(#clip_315)">
<text xml:space="preserve" transform="matrix(1 0 -0 1 0 841.92)" font-size="9.96" font-family="Arial" font-weight="bold"><tspan y="-254.33" x="131.78"> </tspan></text>
</g>
<g clip-path="url(#clip_316)">
<text xml:space="preserve" transform="matrix(1 0 -0 1 0 841.92)" font-size="11.04" font-family="SymbolMT"><tspan y="-239.45" x="36">&#x2022;</tspan></text>
</g>
<g clip-path="url(#clip_317)">
<text xml:space="preserve" transform="matrix(1 0 -0 1 0 841.92)" font-size="11.04" font-family="ArialMT"><tspan y="-239.45" x="41.04"> </tspan></text>
</g>
<g clip-path="url(#clip_318)">
<text xml:space="preserve" transform="matrix(1 0 -0 1 0 841.92)" font-size="9.96" font-family="Arial" font-weight="bold"><tspan y="-239.45" x="54 60.60348 66.70896 72.814449 75.58333 78.35221 83.85013 89.955608">English </tspan></text>
</g>
<g clip-path="url(#clip_319)">
<text xml:space="preserve" transform="matrix(1 0 -0 1 0 841.92)" font-size="9.96" font-family="Arial" font-weight="bold"><tspan y="-239.45" x="92.784">&#x2013;</tspan></text>
</g>
<g clip-path="url(#clip_320)">
<text xml:space="preserve" transform="matrix(1 0 -0 1 0 841.92)" font-size="9.96" font-family="Arial" font-weight="bold"><tspan y="-239.45" x="98.424"> </tspan></text>
</g>
<g clip-path="url(#clip_321)">
<text xml:space="preserve" transform="matrix(1 0 -0 1 0 841.92)" font-size="9.96" font-family="Arial" font-weight="bold"><tspan y="-239.45" x="101.18 107.893039 111.7376 117.84309 121.189647 126.7274 132.22533 137.85274 140.62162 146.70717 152.84253 158.3803 161.14917 163.8782 171.78646 177.89192 181.73648 187.27425 190.04312 196.12868 202.24411 205.01299 211.09854 214.97298 221.05854 224.43497 227.20384 232.74161 235.5802 241.11797 247.20352 252.74129">Professional working proficiency</tspan></text>
</g>
<g clip-path="url(#clip_322)">
<text xml:space="preserve" transform="matrix(1 0 -0 1 0 841.92)" font-size="9.96" font-family="Arial" font-weight="bold"><tspan y="-239.45" x="258.53"> </tspan></text>
</g>
<g clip-path="url(#clip_323)">
<text xml:space="preserve" transform="matrix(1 0 -0 1 0 841.92)" font-size="11.04" font-family="ArialMT"><tspan y="-217.22" x="36"> </tspan></text>
</g>
</g>
</svg>
